<?xml version="1.0" encoding="utf-8"?>
<!-- Generator: Adobe Illustrator 26.0.3, SVG Export Plug-In . SVG Version: 6.00 Build 0)  -->
<svg version="1.1" id="Layer_1" xmlns="http://www.w3.org/2000/svg" xmlns:xlink="http://www.w3.org/1999/xlink" x="0px" y="0px"
	 viewBox="0 0 115.3 1146.4" style="enable-background:new 0 0 115.3 1146.4;" xml:space="preserve">
<style type="text/css">
	.st0{fill:#010202;}
</style>
<path class="st0" d="M51.7,1107.3v-7.4c0-1.4-0.3-2.4-0.9-3c-0.6-0.6-1.8-0.9-3.6-0.9v-1.2h11.6v1.2c-1,0-1.9,0.1-2.5,0.2
	c-0.7,0.1-1.2,0.3-1.5,0.6c-0.4,0.3-0.7,0.7-0.8,1.2c-0.1,0.5-0.2,1.1-0.2,1.9v7.3h11.5c1,0,1.9-0.1,2.5-0.2c0.6-0.2,1.1-0.5,1.4-1
	c0.4-0.5,0.6-1.1,0.7-1.9c0.1-0.8,0.1-1.9,0.1-3.3v-3.4c0-1.4-0.1-2.5-0.3-3.4c-0.2-0.9-0.5-1.7-1-2.3c-0.5-0.6-1.1-1.1-2-1.6
	c-0.8-0.4-1.9-0.8-3.2-1.3v-1.3c0.7,0.2,1.3,0.5,2,0.7c0.7,0.2,1.3,0.4,2,0.6c0.7,0.2,1.4,0.4,2.1,0.5c0.7,0.2,1.3,0.3,2,0.4
	c-0.1,4.3-0.1,8.6-0.1,12.9s0,8.5,0.1,12.5h-1.2c0-2.1-0.3-3.4-1-4s-2.1-0.9-4.1-0.9H41.1c-1,0-1.8,0.1-2.4,0.2
	c-0.6,0.1-1.1,0.4-1.4,0.8c-0.3,0.4-0.5,0.9-0.6,1.5c-0.1,0.6-0.2,1.4-0.2,2.4h-1.3c0.1-3.9,0.1-7.9,0.1-12.1s0-8-0.1-11.7H43v1
	c-1.3,0.1-2.4,0.3-3.2,0.6c-0.8,0.2-1.5,0.6-2,1.2c-0.4,0.5-0.7,1.2-0.9,2.1c-0.2,0.9-0.2,2.1-0.2,3.6v7.1H51.7z M47.8,1078.6
	c0.9,0.1,1.7,0.2,2.6,0.2c0.8,0,1.5,0,1.9,0c-1.1-1.5-2.1-3-3.1-4.7s-1.5-3.3-1.5-4.9c0-2,0.7-3.4,2.1-4.2c1.4-0.8,3.1-1.3,5.1-1.3
	h11.6c1.4,0,2.3-0.2,2.9-0.7c0.6-0.5,0.8-1.4,0.8-2.9h1.2c0,0.5,0,0.9,0,1.3c0,0.4,0,0.8,0,1.2c0,0.4,0,0.8,0,1.2c0,0.4,0,0.8,0,1.3
	c0,0.5,0,0.9,0,1.4c0,0.4,0,0.8,0,1.2s0,0.8,0,1.2c0,0.4,0,0.8,0,1.3h-1.2c0-1.4-0.3-2.3-0.8-2.8c-0.6-0.5-1.6-0.7-2.9-0.7H55
	c-1.6,0-2.8,0.4-3.5,1.1c-0.7,0.7-1.1,2-1.1,3.7c0,0.5,0.2,1.1,0.4,1.7c0.2,0.7,0.4,1.3,0.7,2c0.3,0.7,0.7,1.4,1.1,2
	c0.4,0.6,0.8,1.2,1.2,1.6h12.8c1.4,0,2.3-0.2,2.9-0.7c0.6-0.5,0.8-1.4,0.8-2.9h1.2c0,0.5,0,0.9,0,1.3s0,0.8,0,1.2c0,0.4,0,0.8,0,1.2
	c0,0.4,0,0.8,0,1.3c0,0.5,0,0.9,0,1.4c0,0.4,0,0.8,0,1.2c0,0.4,0,0.8,0,1.3c0,0.4,0,0.8,0,1.3h-1.2c0-1.4-0.3-2.4-0.8-2.8
	c-0.6-0.5-1.6-0.7-2.9-0.7H55.1c-0.9,0-1.6,0-2.1,0.1c-0.5,0-0.9,0.1-1.2,0.3c-0.3,0.2-0.5,0.5-0.6,0.9c-0.1,0.4-0.1,0.9-0.1,1.6h-1
	c-0.2-1-0.4-2-0.7-2.8c-0.3-0.9-0.8-1.7-1.5-2.4V1078.6z M57.1,1053.7c0.5,0.1,1,0.1,1.6,0.1c0.6,0,1.3,0,2.1-0.1
	c2.5-0.2,4.6-0.9,6.2-2.3c1.7-1.4,2.5-3.2,2.5-5.6c0-1.6-0.3-3-0.9-4.2c-0.7-1.2-1.4-2.2-2.4-3l0.4-0.7c1.6,0.9,3,2.1,4.1,3.7
	c1.1,1.5,1.6,3.3,1.6,5.2c0,1.4-0.3,2.7-0.9,3.9c-0.6,1.2-1.4,2.2-2.4,3.1c-1,0.9-2.3,1.6-3.7,2.1c-1.4,0.5-2.9,0.7-4.6,0.7
	c-2.1,0-3.9-0.3-5.5-0.8c-1.6-0.5-3-1.2-4.1-2.1c-1.1-0.9-2-2-2.6-3.2c-0.6-1.2-0.9-2.6-0.9-4c0-1,0.2-2,0.5-2.9
	c0.3-1,0.8-1.9,1.5-2.6c0.7-0.8,1.5-1.4,2.6-1.9c1-0.5,2.2-0.7,3.6-0.8c0.4,0,0.7,0,0.9,0.1c0.2,0.1,0.3,0.3,0.3,0.7V1053.7z
	 M55.6,1043.3c0-0.6-0.1-1-0.2-1.3c-0.2-0.3-0.5-0.4-1-0.4c-0.5,0-1.1,0.1-1.7,0.4c-0.6,0.2-1.1,0.6-1.6,1c-0.5,0.5-0.9,1-1.2,1.7
	c-0.3,0.7-0.5,1.4-0.5,2.2c0,1.9,0.6,3.4,1.8,4.5c1.1,1.1,2.6,1.8,4.5,2.2V1043.3z M53.1,1028.2c-0.7-0.5-1.3-1-1.9-1.7
	c-0.7-0.6-1.2-1.2-1.8-1.9c-0.5-0.7-0.9-1.3-1.2-1.9c-0.3-0.6-0.5-1.2-0.5-1.8c0-0.8,0.2-1.5,0.6-2.1c0.4-0.6,0.9-0.9,1.7-0.9
	c0.8,0,1.4,0.2,1.8,0.7c0.4,0.5,0.6,0.9,0.6,1.3c0,0.4,0,0.7-0.1,0.9c-0.1,0.2-0.3,0.5-0.4,0.7c-0.2,0.2-0.3,0.5-0.4,0.8
	c-0.1,0.3-0.2,0.6-0.2,1.1c0,0.3,0.1,0.7,0.4,1.2c0.3,0.5,0.7,1,1.1,1.5c0.5,0.5,1,1,1.6,1.3c0.6,0.4,1.2,0.5,1.8,0.5h10.4
	c0.8,0,1.4,0,2-0.1c0.5-0.1,0.9-0.4,1.1-0.8s0.4-0.9,0.5-1.7c0.1-0.7,0.1-1.7,0.1-2.9h1.2c0,0.7,0,1.7,0,2.8c0,1.1,0,2.2,0,3.4
	s0,2.3,0,3.4c0,1.1,0,2,0,2.8h-1.2c0-1.7-0.2-2.7-0.6-3.2c-0.4-0.5-1.5-0.7-3.1-0.7H55.1c-0.9,0-1.6,0-2.1,0.1
	c-0.5,0.1-0.9,0.2-1.2,0.4c-0.3,0.2-0.5,0.5-0.6,0.9c-0.1,0.4-0.1,0.9-0.1,1.6h-1c-0.2-1-0.4-2-0.7-2.8c-0.3-0.9-0.8-1.7-1.5-2.4
	v-0.9c0.9,0.1,1.8,0.2,2.7,0.2C51.5,1028.2,52.3,1028.2,53.1,1028.2z M51.4,993.4l-0.2,5.1c0.4-0.3,1-0.6,1.9-0.9
	c0.9-0.3,1.6-0.4,2.2-0.4c2.6,0,4.6,0.8,6,2.5c1.4,1.7,2.1,3.9,2.1,6.6c0,0.4,0,0.8,0,1.3c0,0.5-0.1,0.9-0.2,1.4
	c0.3,0.4,0.6,0.7,0.8,1c0.2,0.3,0.4,0.5,0.6,0.6c0.2,0.2,0.4,0.3,0.6,0.4c0.2,0.1,0.5,0.1,0.8,0.1c0.2,0,0.5,0,0.8,0
	c0.3,0,0.6-0.2,0.9-0.4c0.3-0.3,0.6-0.7,0.8-1.2c0.2-0.6,0.3-1.4,0.3-2.4c0-0.6,0-1.2,0-1.8c0-0.6,0-1.2,0-1.8c0-0.6,0-1.1,0-1.7
	c0-0.5,0-1.1,0-1.6c0-2.1,0.5-3.7,1.4-5s2.4-2,4.3-2c1.2,0,2.3,0.3,3.4,1c1.1,0.7,2.1,1.6,2.9,2.8c0.8,1.2,1.5,2.6,2,4.2
	c0.5,1.6,0.8,3.4,0.8,5.2c0,1.6-0.2,2.9-0.6,4.1c-0.4,1.2-0.9,2.1-1.5,2.9c-0.6,0.8-1.2,1.4-2,1.8c-0.7,0.4-1.4,0.5-2.2,0.5
	c-1.7,0-3.1-0.6-4.1-1.8c-1-1.2-1.8-2.5-2.2-4c-0.4,1.8-1.2,2.9-2.3,3.5c-1.1,0.6-2.3,0.7-3.6,0.3c-0.4-0.7-0.8-1.4-1.3-2.1
	c-0.5-0.7-0.9-1.2-1.2-1.5c-0.6,1.2-1.5,2.2-2.5,3.1c-1.1,0.8-2.6,1.3-4.3,1.3c-2.3,0-4.2-0.8-5.7-2.3c-1.5-1.6-2.3-3.9-2.3-6.9
	c0-0.7,0.1-1.4,0.2-2.2c0.1-0.8,0.3-1.5,0.4-2.2c0.3-0.7,0.5-1.4,0.7-2.2c0.2-0.8,0.2-1.8,0.2-3c0-0.2,0-0.4,0-0.6
	c0-0.2,0-0.3,0-0.5c0-0.2,0-0.3,0-0.5c0-0.2-0.1-0.5-0.1-0.8H51.4z M76.6,1013.3c1.8,0,3.1-0.7,4-2.2c0.9-1.5,1.4-3.2,1.4-5.2
	c0-1.3-0.1-2.6-0.4-3.8c-0.3-1.2-0.7-2.3-1.2-3.2c-0.5-0.9-1.1-1.6-1.9-2.1c-0.7-0.5-1.5-0.8-2.4-0.8c-0.8,0-1.5,0.2-2.1,0.7
	c-0.6,0.4-1,1-1.3,1.7c-0.4,0.7-0.6,1.6-0.7,2.6c-0.2,0.9-0.2,2-0.2,3c0,3,0.5,5.3,1.4,6.9C73.9,1012.5,75.1,1013.3,76.6,1013.3z
	 M55.2,1011.5c1.9,0,3.5-0.5,4.8-1.4c1.4-0.9,2.1-2.3,2.1-4.1c0-2.1-0.6-3.5-1.9-4.4c-1.2-0.9-2.7-1.3-4.3-1.3
	c-0.8,0-1.6,0.1-2.4,0.3c-0.8,0.2-1.6,0.6-2.2,1c-0.7,0.5-1.2,1.1-1.6,1.8c-0.4,0.7-0.6,1.6-0.6,2.7c0,0.9,0.2,1.8,0.6,2.4
	c0.4,0.7,0.9,1.2,1.5,1.7c0.6,0.4,1.3,0.7,2.1,0.9C53.8,1011.4,54.5,1011.5,55.2,1011.5z M70,980.5c-0.9,0.4-2.3,0.9-4,1.6
	c-1.7,0.7-3.4,1.4-5.2,2.1c-1.8,0.7-3.5,1.4-5.1,2.1c-1.6,0.6-2.8,1.1-3.6,1.3c-0.8,0.3-1.4,0.7-1.8,1.2c-0.4,0.5-0.6,1.3-0.6,2.2
	h-1.3c0.1-0.5,0.1-1.2,0.1-2.1c0-0.9,0-1.9,0-2.9s0-1.9,0-2.7c0-0.9-0.1-1.5-0.1-1.9h1.4c0.1,1.3,0.3,2.1,0.7,2.5
	c0.4,0.4,1,0.5,2,0.2l13.6-5.3l-13.3-5.6c-1-0.4-1.8-0.4-2.2,0c-0.5,0.4-0.8,1.1-0.8,2.1h-1.3c0.1-0.4,0.1-0.9,0.1-1.7
	c0-0.7,0-1.5,0-2.2s0-1.5,0-2.2c0-0.7-0.1-1.2-0.1-1.6h1.3c0,1.1,0.3,2,0.8,2.5c0.5,0.5,1.4,1,2.6,1.5L81,983.7c1,0.4,1.6,1,2,1.8
	c0.3,0.7,0.5,1.5,0.5,2.2c0,0.6-0.2,1.1-0.5,1.6c-0.3,0.5-0.8,0.7-1.6,0.7c-0.7,0-1.2-0.3-1.5-0.8c-0.3-0.5-0.4-1-0.3-1.5
	c0-0.1,0-0.3,0.1-0.4c0.1-0.2,0.2-0.3,0.3-0.5c0.1-0.2,0.1-0.3,0.2-0.5c0.1-0.2,0.2-0.3,0.2-0.4c0-0.3-0.1-0.6-0.2-0.8
	c-0.1-0.2-0.3-0.4-0.6-0.6L70,980.5z M49.1,936.4h2.1v6.6H67c1.4,0,2.3-0.4,2.7-1.1c0.4-0.7,0.6-2,0.6-3.7h1.2c0,0.8,0,1.8,0,2.9
	c0,1,0,2.1,0,3.2c0,1.1,0,2.1,0,3.2c0,1,0,2,0,2.7h-1.2c0-1.5-0.3-2.5-0.8-3.2c-0.5-0.7-1.4-1-2.6-1H51.3v3.7h-1
	c-0.1-0.8-0.4-1.7-0.8-2.5c-0.5-0.8-1.3-1.2-2.4-1.2c-0.9,0-1.9-0.1-3-0.2c-1.1-0.2-2.2-0.4-3.3-0.8c-1.1-0.3-2.1-0.7-3.1-1.2
	c-1-0.5-1.8-1.1-2.5-1.8c-1.3-1.3-2.2-2.5-2.7-3.6c-0.5-1.1-0.8-1.9-0.8-2.3c0-0.7,0.2-1.3,0.5-1.8c0.3-0.4,0.8-0.6,1.5-0.6
	c0.6,0,1,0.2,1.3,0.7c0.3,0.5,0.4,0.9,0.4,1.2c0,0.3,0,0.5,0,0.6c-0.1,0.2-0.1,0.4-0.2,0.6c-0.1,0.2-0.1,0.5-0.2,0.8
	c-0.1,0.3-0.1,0.7-0.1,1.3c0,0.7,0.2,1.4,0.6,1.9c0.4,0.5,0.9,0.9,1.6,1.3c0.6,0.3,1.3,0.6,2,0.7c0.7,0.1,1.3,0.2,1.8,0.2h8.2V936.4
	z M39.4,930.3c-0.8,0-1.5,0-2,0.1c-0.5,0.1-0.9,0.2-1.2,0.5c-0.3,0.2-0.4,0.6-0.5,1c-0.1,0.4-0.1,1-0.1,1.7h-1c-0.2-1-0.5-2.1-0.9-3
	c-0.4-1-1-1.9-1.7-2.6V927c0.9,0.1,1.8,0.2,2.8,0.2c1,0,1.9,0,2.6,0h29.1c1.4,0,2.3-0.2,2.9-0.7c0.6-0.5,0.8-1.4,0.8-2.8h1.2
	c0,0.7,0,1.5,0,2.4c0,0.9,0,1.8,0,2.6c0,0.9,0,1.8,0,2.7c0,0.8,0,1.6,0,2.2h-1.2c0-1.5-0.2-2.4-0.7-2.8c-0.5-0.5-1.5-0.7-3-0.7H39.4
	z M57.1,917.1c0.5,0.1,1,0.1,1.6,0.1c0.6,0,1.3,0,2.1-0.1c2.5-0.2,4.6-0.9,6.2-2.3c1.7-1.4,2.5-3.2,2.5-5.6c0-1.6-0.3-3-0.9-4.2
	c-0.7-1.2-1.4-2.2-2.4-3l0.4-0.7c1.6,0.9,3,2.1,4.1,3.7c1.1,1.5,1.6,3.3,1.6,5.2c0,1.4-0.3,2.7-0.9,3.9c-0.6,1.2-1.4,2.2-2.4,3.1
	c-1,0.9-2.3,1.6-3.7,2.1c-1.4,0.5-2.9,0.7-4.6,0.7c-2.1,0-3.9-0.3-5.5-0.8c-1.6-0.5-3-1.2-4.1-2.1c-1.1-0.9-2-2-2.6-3.2
	c-0.6-1.2-0.9-2.6-0.9-4c0-1,0.2-2,0.5-2.9c0.3-1,0.8-1.9,1.5-2.6c0.7-0.8,1.5-1.4,2.6-1.9c1-0.5,2.2-0.7,3.6-0.8
	c0.4,0,0.7,0,0.9,0.1c0.2,0.1,0.3,0.3,0.3,0.7V917.1z M55.6,906.6c0-0.6-0.1-1-0.2-1.3c-0.2-0.3-0.5-0.4-1-0.4
	c-0.5,0-1.1,0.1-1.7,0.4c-0.6,0.2-1.1,0.6-1.6,1c-0.5,0.5-0.9,1-1.2,1.7c-0.3,0.7-0.5,1.4-0.5,2.2c0,1.9,0.6,3.4,1.8,4.5
	c1.1,1.1,2.6,1.8,4.5,2.2V906.6z M68.3,891.7c0.8,0.7,1.4,0.9,1.7,0.7c0.3-0.2,0.4-1,0.4-2.4h1.2c-0.1,1.3-0.1,2.8-0.1,4.4
	c0,1.6,0,3,0.1,4.3h-1.2c0-1.2-0.1-2.3-0.4-3.1c-0.3-0.8-1.1-1.8-2.3-2.8l-7-6l-8.5,6.7c-0.7,0.6-1.2,1.2-1.6,2
	c-0.4,0.7-0.7,1.4-0.7,2.3h-1.4c0.1-1.5,0.1-3.1,0.1-4.8c0-1.8,0-3.4-0.1-5h1.3c0,1.2,0.2,2,0.5,2.4c0.4,0.4,1,0.2,1.9-0.4l6.2-4.9
	l-6.2-5.3c-0.8-0.6-1.5-0.7-1.9-0.4c-0.4,0.3-0.6,1-0.6,2.1h-1.3c0.1-1.4,0.1-2.8,0.1-4.2c0-1.4-0.1-2.9-0.1-4.4h1.3
	c0,1.2,0.2,2.3,0.6,3.1s1.1,1.7,2.1,2.4l6.9,5.9l8.6-6.8c0.9-0.7,1.5-1.3,1.8-1.9c0.3-0.6,0.5-1.5,0.5-2.7h1.2c0,0.5,0,1,0,1.5
	c0,0.4,0,0.8,0,1.3c0,0.4,0,0.8,0,1.3c0,0.4,0,0.9,0,1.4c0,0.5,0,0.9,0,1.3c0,0.4,0,0.8,0,1.2c0,0.4,0,0.8,0,1.2c0,0.4,0,0.8,0,1.3
	h-1.2c0-1.3-0.2-2.2-0.5-2.5c-0.3-0.4-0.9-0.3-1.6,0.3l-6.6,5.2L68.3,891.7z M67.1,863.5c1.4,0,2.3-0.2,2.7-0.7
	c0.4-0.5,0.6-1.4,0.6-2.8h1.2c0,0.5,0,0.9,0,1.3c0,0.4,0,0.8,0,1.2c0,0.4,0,0.8,0,1.2c0,0.4,0,0.8,0,1.3c0,0.5,0,0.9,0,1.4
	c0,0.4,0,0.8,0,1.2c0,0.4,0,0.8,0,1.3c0,0.4,0,0.8,0,1.3h-1.2c0-1.4-0.2-2.4-0.6-2.8c-0.4-0.5-1.3-0.7-2.7-0.7h-12
	c-0.9,0-1.6,0-2.1,0.1c-0.5,0.1-0.9,0.2-1.2,0.4c-0.3,0.2-0.5,0.5-0.6,0.9c-0.1,0.4-0.1,0.9-0.1,1.6h-1c-0.2-1-0.4-2-0.7-2.8
	c-0.3-0.9-0.8-1.7-1.5-2.4v-0.9c0.9,0.1,1.8,0.2,2.8,0.2c1,0,1.9,0,2.6,0H67.1z M37.1,867.5c-0.7,0-1.2-0.2-1.7-0.7
	c-0.5-0.5-0.7-1.1-0.7-1.7s0.2-1.2,0.7-1.7c0.5-0.5,1.1-0.7,1.7-0.7c0.7,0,1.2,0.2,1.7,0.7c0.5,0.5,0.7,1.1,0.7,1.7
	s-0.2,1.2-0.7,1.7C38.3,867.3,37.8,867.5,37.1,867.5z M32,849.8c0.9,0.1,1.8,0.2,2.8,0.2c1,0,1.9,0,2.6,0h14.8
	c-0.5-0.5-1-1.1-1.5-1.8c-0.5-0.7-1-1.4-1.5-2.2c-0.5-0.7-0.8-1.5-1.1-2.2c-0.3-0.8-0.4-1.5-0.4-2.1c0-1.4,0.3-2.6,0.9-3.8
	s1.4-2.1,2.4-2.9c1-0.8,2.2-1.4,3.5-1.9c1.3-0.5,2.7-0.7,4.1-0.7c1.9,0,3.6,0.3,5.3,0.9c1.7,0.6,3.1,1.4,4.4,2.4
	c1.2,1.1,2.2,2.3,3,3.8c0.7,1.4,1.1,3,1.1,4.7c0,1.6-0.2,3-0.7,4.3c-0.5,1.3-0.9,2.4-1.4,3.1l1.4,1.2l-0.4,0.9
	c-1.5-0.2-3.1-0.4-4.6-0.6c-1.6-0.2-3.2-0.2-4.8-0.2H39.4c-0.8,0-1.5,0-2,0.1c-0.5,0.1-0.9,0.2-1.2,0.5c-0.3,0.2-0.4,0.6-0.5,1
	c-0.1,0.4-0.1,1-0.1,1.7h-1c-0.2-1-0.5-2.1-0.9-3c-0.4-1-1-1.9-1.7-2.6V849.8z M65.8,850c1.5,0,2.8-0.5,3.8-1.4
	c0.9-0.9,1.4-2.4,1.4-4.5c0-1.5-0.3-2.8-0.9-4c-0.6-1.1-1.4-2-2.3-2.7c-1-0.7-2.1-1.2-3.2-1.6c-1.2-0.3-2.4-0.5-3.6-0.5
	c-3.1,0-5.6,0.7-7.6,2c-2,1.3-3,3.2-3,5.5c0,1.2,0.4,2.5,1.2,3.8c0.8,1.3,1.7,2.4,2.6,3.3H65.8z M67.1,822c1.4,0,2.3-0.2,2.7-0.7
	c0.4-0.5,0.6-1.4,0.6-2.8h1.2c0,0.5,0,0.9,0,1.3s0,0.8,0,1.2c0,0.4,0,0.8,0,1.2c0,0.4,0,0.8,0,1.3c0,0.5,0,0.9,0,1.4
	c0,0.4,0,0.8,0,1.2c0,0.4,0,0.8,0,1.3c0,0.4,0,0.8,0,1.3h-1.2c0-1.4-0.2-2.4-0.6-2.8c-0.4-0.5-1.3-0.7-2.7-0.7h-12
	c-0.9,0-1.6,0-2.1,0.1c-0.5,0.1-0.9,0.2-1.2,0.4c-0.3,0.2-0.5,0.5-0.6,0.9c-0.1,0.4-0.1,0.9-0.1,1.6h-1c-0.2-1-0.4-2-0.7-2.8
	c-0.3-0.9-0.8-1.7-1.5-2.4v-0.9c0.9,0.1,1.8,0.2,2.8,0.2c1,0,1.9,0,2.6,0H67.1z M37.1,826c-0.7,0-1.2-0.2-1.7-0.7
	c-0.5-0.5-0.7-1.1-0.7-1.7s0.2-1.2,0.7-1.7c0.5-0.5,1.1-0.7,1.7-0.7c0.7,0,1.2,0.2,1.7,0.7c0.5,0.5,0.7,1.1,0.7,1.7
	s-0.2,1.2-0.7,1.7C38.3,825.7,37.8,826,37.1,826z M39.4,811.5c-0.8,0-1.5,0-2,0.1c-0.5,0.1-0.9,0.2-1.2,0.5c-0.3,0.2-0.4,0.6-0.5,1
	c-0.1,0.4-0.1,1-0.1,1.7h-1c-0.2-1-0.5-2.1-0.9-3c-0.4-1-1-1.9-1.7-2.6v-0.9c0.9,0.1,1.8,0.2,2.8,0.2c1,0,1.9,0,2.6,0h29.1
	c1.4,0,2.3-0.2,2.9-0.7c0.6-0.5,0.8-1.4,0.8-2.8h1.2c0,0.7,0,1.5,0,2.4c0,0.9,0,1.8,0,2.6c0,0.9,0,1.8,0,2.7c0,0.8,0,1.6,0,2.2h-1.2
	c0-1.5-0.2-2.4-0.7-2.8c-0.5-0.5-1.5-0.7-3-0.7H39.4z M67.1,795c1.4,0,2.3-0.2,2.7-0.7c0.4-0.5,0.6-1.4,0.6-2.8h1.2
	c0,0.5,0,0.9,0,1.3c0,0.4,0,0.8,0,1.2c0,0.4,0,0.8,0,1.2c0,0.4,0,0.8,0,1.3c0,0.5,0,0.9,0,1.4c0,0.4,0,0.8,0,1.2c0,0.4,0,0.8,0,1.3
	c0,0.4,0,0.8,0,1.3h-1.2c0-1.4-0.2-2.4-0.6-2.8c-0.4-0.5-1.3-0.7-2.7-0.7h-12c-0.9,0-1.6,0-2.1,0.1c-0.5,0.1-0.9,0.2-1.2,0.4
	c-0.3,0.2-0.5,0.5-0.6,0.9c-0.1,0.4-0.1,0.9-0.1,1.6h-1c-0.2-1-0.4-2-0.7-2.8c-0.3-0.9-0.8-1.7-1.5-2.4v-0.9
	c0.9,0.1,1.8,0.2,2.8,0.2c1,0,1.9,0,2.6,0H67.1z M37.1,799c-0.7,0-1.2-0.2-1.7-0.7c-0.5-0.5-0.7-1.1-0.7-1.7s0.2-1.2,0.7-1.7
	c0.5-0.5,1.1-0.7,1.7-0.7c0.7,0,1.2,0.2,1.7,0.7c0.5,0.5,0.7,1.1,0.7,1.7s-0.2,1.2-0.7,1.7C38.3,798.8,37.8,799,37.1,799z
	 M65.2,782.3c1.9,0,3.2-0.3,3.9-0.8c0.7-0.6,1-1.3,1-2.2c0-0.3,0-0.7-0.1-1.1c-0.1-0.5-0.2-0.9-0.4-1.3c-0.2-0.5-0.3-0.9-0.5-1.2
	c-0.2-0.4-0.3-0.6-0.5-0.8l0.7-0.4c1,0.9,1.8,1.9,2.3,3c0.6,1,0.8,2.2,0.8,3.4c0,1.4-0.4,2.6-1.2,3.4c-0.8,0.8-2,1.2-3.6,1.2H51.3
	v3.4h-0.9c-0.5-1.6-1.3-2.8-2.4-3.7c-1.1-0.8-2.7-1.4-4.8-1.8v-1h6v-7.8h2.1v7.8H65.2z M70,761.8c-0.9,0.4-2.3,0.9-4,1.6
	c-1.7,0.7-3.4,1.4-5.2,2.1c-1.8,0.7-3.5,1.4-5.1,2.1c-1.6,0.6-2.8,1.1-3.6,1.3c-0.8,0.3-1.4,0.7-1.8,1.2c-0.4,0.5-0.6,1.3-0.6,2.2
	h-1.3c0.1-0.5,0.1-1.2,0.1-2.1c0-0.9,0-1.9,0-2.9c0-1,0-1.9,0-2.7c0-0.9-0.1-1.5-0.1-1.9h1.4c0.1,1.3,0.3,2.1,0.7,2.5
	c0.4,0.4,1,0.5,2,0.2l13.6-5.3l-13.3-5.6c-1-0.4-1.8-0.4-2.2,0c-0.5,0.4-0.8,1.1-0.8,2.1h-1.3c0.1-0.4,0.1-0.9,0.1-1.7
	c0-0.7,0-1.5,0-2.2s0-1.5,0-2.2c0-0.7-0.1-1.2-0.1-1.6h1.3c0,1.1,0.3,2,0.8,2.5c0.5,0.5,1.4,1,2.6,1.5L81,765c1,0.4,1.6,1,2,1.8
	c0.3,0.7,0.5,1.5,0.5,2.2c0,0.6-0.2,1.1-0.5,1.6c-0.3,0.5-0.8,0.7-1.6,0.7c-0.7,0-1.2-0.3-1.5-0.8c-0.3-0.5-0.4-1-0.3-1.5
	c0-0.1,0-0.3,0.1-0.4c0.1-0.2,0.2-0.3,0.3-0.5c0.1-0.2,0.1-0.3,0.2-0.5c0.1-0.2,0.2-0.3,0.2-0.4c0-0.3-0.1-0.6-0.2-0.8
	c-0.1-0.2-0.3-0.4-0.6-0.6L70,761.8z M59.7,717.3c1.1,3.6,2.1,6.3,3,8.1c0.9,1.8,2.1,2.6,3.5,2.6c1.5,0,2.5-0.4,3.1-1.1
	c0.5-0.8,0.8-1.9,0.8-3.2c0-1.2-0.3-2.4-1-3.5c-0.7-1.1-1.4-2.1-2.3-2.9H59.7z M69.7,709.9c0.7,0.7,1.3,1.5,1.9,2.3
	c0.6,0.8,0.8,1.6,0.8,2.4c0,0.8-0.4,1.4-1.1,1.9c-0.7,0.5-1.8,0.7-3.1,0.8c1.3,1.2,2.3,2.5,3.1,4c0.7,1.5,1.1,3,1.1,4.6
	c0,1.5-0.5,2.7-1.4,3.7c-1,1-2.2,1.5-3.7,1.4c-1.2,0-2.2-0.4-3.1-1.1c-0.9-0.7-1.6-1.7-2.3-2.9c-0.7-1.2-1.3-2.6-1.8-4.3
	c-0.6-1.7-1.1-3.5-1.8-5.4H55c-1.4,0-2.6,0.3-3.5,1c-0.9,0.7-1.4,1.9-1.4,3.9c0,1.4,0.4,2.6,1.2,3.7c0.8,1,1.7,1.6,2.9,1.6
	c0.8,0,1.4,0.2,1.7,0.5c0.4,0.3,0.5,0.7,0.5,1.1c0,0.4-0.2,0.7-0.5,0.9c-0.3,0.2-0.7,0.3-1.3,0.3c-0.9,0-1.7-0.4-2.5-1.2
	c-0.8-0.8-1.7-2.2-2.7-4.1c-0.6-1.1-1-2-1.3-2.6c-0.3-0.7-0.4-1.5-0.4-2.2c0-1.6,0.5-2.9,1.4-4.1c0.9-1.2,2.3-1.8,4.1-1.8h13.3
	c1.8,0,2.9-0.4,3.1-1.2c0.3-0.8,0-1.8-0.9-3.1L69.7,709.9z M47.8,699.9c0.9,0.1,1.7,0.2,2.6,0.2c0.8,0,1.5,0,1.9,0
	c-1.1-1.5-2.1-3-3.1-4.7c-1-1.7-1.5-3.3-1.5-4.9c0-2,0.7-3.4,2.1-4.2c1.4-0.8,3.1-1.3,5.1-1.3h11.6c1.4,0,2.3-0.2,2.9-0.7
	c0.6-0.5,0.8-1.4,0.8-2.9h1.2c0,0.5,0,0.9,0,1.3c0,0.4,0,0.8,0,1.2c0,0.4,0,0.8,0,1.2c0,0.4,0,0.8,0,1.3c0,0.5,0,0.9,0,1.4
	c0,0.4,0,0.8,0,1.2s0,0.8,0,1.2c0,0.4,0,0.8,0,1.3h-1.2c0-1.4-0.3-2.3-0.8-2.8c-0.6-0.5-1.6-0.7-2.9-0.7H55c-1.6,0-2.8,0.4-3.5,1.1
	c-0.7,0.7-1.1,2-1.1,3.7c0,0.5,0.2,1.1,0.4,1.7c0.2,0.7,0.4,1.3,0.7,2c0.3,0.7,0.7,1.3,1.1,2c0.4,0.6,0.8,1.2,1.2,1.6h12.8
	c1.4,0,2.3-0.2,2.9-0.7c0.6-0.5,0.8-1.4,0.8-2.9h1.2c0,0.5,0,0.9,0,1.3c0,0.4,0,0.8,0,1.2c0,0.4,0,0.8,0,1.2c0,0.4,0,0.8,0,1.3
	c0,0.5,0,0.9,0,1.4c0,0.4,0,0.8,0,1.2c0,0.4,0,0.8,0,1.3c0,0.4,0,0.8,0,1.3h-1.2c0-1.4-0.3-2.4-0.8-2.8c-0.6-0.5-1.6-0.7-2.9-0.7
	H55.1c-0.9,0-1.6,0-2.1,0.1c-0.5,0-0.9,0.1-1.2,0.3c-0.3,0.2-0.5,0.5-0.6,0.9c-0.1,0.4-0.1,0.9-0.1,1.6h-1c-0.2-1-0.4-2-0.7-2.8
	c-0.3-0.9-0.8-1.7-1.5-2.4V699.9z M54.2,659.8c-0.9,0-1.7,0.2-2.3,0.6c-0.7,0.4-1.2,0.9-1.5,1.5c-0.4,0.6-0.6,1.3-0.8,2
	s-0.2,1.4-0.2,2c0,1,0.2,2.1,0.7,3.1c0.4,1,1.1,1.9,2,2.7c0.9,0.8,2,1.5,3.3,2c1.3,0.5,2.8,0.7,4.6,0.7c2.9,0,5.2-0.7,7.1-2.2
	c1.9-1.5,2.8-3.6,2.8-6.2c0-0.4-0.1-1-0.2-1.7c-0.2-0.7-0.5-1.4-0.8-2.1s-0.7-1.2-1.1-1.7c-0.4-0.5-0.9-0.7-1.4-0.7H54.2z
	 M39.4,659.8c-0.8,0-1.5,0-2,0.1c-0.5,0.1-0.9,0.2-1.2,0.5c-0.3,0.2-0.4,0.6-0.5,1c-0.1,0.4-0.1,1-0.1,1.7h-1c-0.2-1-0.5-2.1-0.9-3
	c-0.4-1-1-1.9-1.7-2.6v-0.9c0.9,0.1,1.8,0.2,2.8,0.2c1,0,1.9,0,2.6,0h29.6c1.1,0,1.8-0.3,2-0.8c0.2-0.6,0.3-1.5,0.2-2.6h1
	c0.2,0.6,0.5,1.5,1,2.7c0.5,1.1,0.9,2.2,1.3,3.2c0.1,0.2,0.1,0.3,0,0.4c-0.1,0.1-0.2,0.1-0.4,0.1h-3.7c1.3,1.3,2.2,2.7,2.9,4.1
	c0.6,1.4,0.9,2.8,0.9,4.2c0,1.4-0.3,2.8-0.9,4c-0.7,1.2-1.5,2.2-2.6,3c-1,0.8-2.2,1.5-3.6,2c-1.4,0.5-2.8,0.7-4.3,0.7
	c-1.8,0-3.4-0.3-5-1c-1.6-0.7-3-1.5-4.2-2.7c-1.2-1.1-2.2-2.4-2.9-3.9c-0.7-1.5-1.1-3.1-1.1-4.8c0-0.8,0.1-1.6,0.3-2.4
	c0.2-0.9,0.5-1.9,1.1-3.1H39.4z M65.2,629.4c1.9,0,3.2-0.3,3.9-0.8c0.7-0.6,1-1.3,1-2.2c0-0.3,0-0.7-0.1-1.1
	c-0.1-0.5-0.2-0.9-0.4-1.3c-0.2-0.5-0.3-0.9-0.5-1.2c-0.2-0.4-0.3-0.6-0.5-0.8l0.7-0.4c1,0.9,1.8,1.9,2.3,3c0.6,1,0.8,2.2,0.8,3.4
	c0,1.4-0.4,2.6-1.2,3.4c-0.8,0.8-2,1.2-3.6,1.2H51.3v3.4h-0.9c-0.5-1.6-1.3-2.8-2.4-3.7c-1.1-0.8-2.7-1.4-4.8-1.8v-1h6v-7.8h2.1v7.8
	H65.2z M39.4,615.6c-0.8,0-1.5,0-2,0.1c-0.5,0.1-0.9,0.2-1.2,0.4c-0.3,0.2-0.4,0.6-0.5,1c-0.1,0.4-0.1,1-0.1,1.7h-1
	c-0.2-1-0.5-2.1-0.9-3c-0.4-1-1-1.9-1.7-2.6v-0.9c0.9,0.1,1.8,0.2,2.8,0.2c1,0,1.9,0,2.6,0h15.6c-0.6-0.5-1.1-1-1.8-1.7
	c-0.6-0.7-1.2-1.3-1.8-2.1c-0.5-0.7-1-1.5-1.3-2.3c-0.4-0.8-0.5-1.7-0.5-2.6c0-2,0.7-3.6,2.2-4.7c1.5-1.1,3.4-1.7,5.6-1.7h10.9
	c0.7,0,1.4,0,1.9,0c0.5-0.1,0.9-0.2,1.2-0.4c0.3-0.2,0.5-0.6,0.6-1.1c0.1-0.5,0.1-1.2,0.1-2h1.2c0,0.5,0,0.9,0,1.3
	c0,0.4,0,0.8,0,1.2c0,0.4,0,0.8,0,1.2c0,0.4,0,0.9,0,1.4c0,0.5,0,0.9,0,1.4c0,0.4,0,0.8,0,1.2c0,0.4,0,0.8,0,1.2c0,0.4,0,0.8,0,1.3
	h-1.2c0-0.7,0-1.3-0.1-1.8c-0.1-0.5-0.2-0.9-0.5-1.1c-0.3-0.3-0.6-0.4-1.1-0.5c-0.5-0.1-1.2-0.1-2.1-0.1h-7.9
	c-1.6,0-2.9,0.1-3.9,0.3c-1,0.2-1.9,0.5-2.5,0.9c-0.6,0.4-1,0.9-1.3,1.6c-0.3,0.7-0.4,1.5-0.4,2.4c0,1.2,0.5,2.5,1.4,3.8
	c0.9,1.3,1.9,2.3,2.9,3.1h11.7c1.5,0,2.6-0.2,3.1-0.6c0.5-0.4,0.7-1.4,0.7-3h1.2c0,0.5,0,0.9,0,1.3s0,0.8,0,1.2c0,0.4,0,0.8,0,1.2
	c0,0.4,0,0.8,0,1.3c0,0.5,0,0.9,0,1.4c0,0.4,0,0.8,0,1.2c0,0.4,0,0.8,0,1.3c0,0.4,0,0.8,0,1.3h-1.2c0-1.5-0.2-2.4-0.7-2.8
	c-0.5-0.4-1.5-0.6-3.1-0.6H39.4z M57.1,587.5c0.5,0.1,1,0.1,1.6,0.1c0.6,0,1.3,0,2.1-0.1c2.5-0.2,4.6-0.9,6.2-2.3
	c1.7-1.4,2.5-3.2,2.5-5.6c0-1.6-0.3-3-0.9-4.2c-0.7-1.2-1.4-2.2-2.4-3l0.4-0.7c1.6,0.9,3,2.1,4.1,3.7c1.1,1.5,1.6,3.3,1.6,5.2
	c0,1.4-0.3,2.7-0.9,3.9c-0.6,1.2-1.4,2.2-2.4,3.1c-1,0.9-2.3,1.6-3.7,2.1c-1.4,0.5-2.9,0.7-4.6,0.7c-2.1,0-3.9-0.3-5.5-0.8
	c-1.6-0.5-3-1.2-4.1-2.1c-1.1-0.9-2-2-2.6-3.2c-0.6-1.2-0.9-2.6-0.9-4c0-1,0.2-2,0.5-2.9c0.3-1,0.8-1.9,1.5-2.6
	c0.7-0.8,1.5-1.4,2.6-1.9c1-0.5,2.2-0.7,3.6-0.8c0.4,0,0.7,0,0.9,0.1c0.2,0.1,0.3,0.3,0.3,0.7V587.5z M55.6,577c0-0.6-0.1-1-0.2-1.3
	c-0.2-0.3-0.5-0.4-1-0.4c-0.5,0-1.1,0.1-1.7,0.4c-0.6,0.2-1.1,0.6-1.6,1c-0.5,0.5-0.9,1-1.2,1.7c-0.3,0.7-0.5,1.4-0.5,2.2
	c0,1.9,0.6,3.4,1.8,4.5c1.1,1.1,2.6,1.8,4.5,2.2V577z M53.1,547c-0.7-0.5-1.3-1-1.9-1.7c-0.7-0.6-1.2-1.2-1.8-1.9
	c-0.5-0.7-0.9-1.3-1.2-1.9c-0.3-0.6-0.5-1.2-0.5-1.8c0-0.8,0.2-1.5,0.6-2.1c0.4-0.6,0.9-0.9,1.7-0.9c0.8,0,1.4,0.2,1.8,0.7
	c0.4,0.5,0.6,0.9,0.6,1.3c0,0.4,0,0.7-0.1,0.9c-0.1,0.2-0.3,0.5-0.4,0.7c-0.2,0.2-0.3,0.5-0.4,0.8c-0.1,0.3-0.2,0.6-0.2,1.1
	c0,0.3,0.1,0.7,0.4,1.2c0.3,0.5,0.7,1,1.1,1.5c0.5,0.5,1,1,1.6,1.3c0.6,0.4,1.2,0.5,1.8,0.5h10.4c0.8,0,1.4,0,2-0.1
	c0.5-0.1,0.9-0.4,1.1-0.8s0.4-0.9,0.5-1.7c0.1-0.7,0.1-1.7,0.1-2.9h1.2c0,0.7,0,1.7,0,2.8c0,1.1,0,2.2,0,3.4s0,2.3,0,3.4
	c0,1.1,0,2,0,2.8h-1.2c0-1.7-0.2-2.7-0.6-3.2c-0.4-0.5-1.5-0.7-3.1-0.7H55.1c-0.9,0-1.6,0-2.1,0.1c-0.5,0.1-0.9,0.2-1.2,0.4
	c-0.3,0.2-0.5,0.5-0.6,0.9c-0.1,0.4-0.1,0.9-0.1,1.6h-1c-0.2-1-0.4-2-0.7-2.8c-0.3-0.9-0.8-1.7-1.5-2.4v-0.9
	c0.9,0.1,1.8,0.2,2.7,0.2C51.5,547,52.3,547,53.1,547z M39.4,531c-0.8,0-1.5,0-2,0.1c-0.5,0.1-0.9,0.2-1.2,0.4
	c-0.3,0.2-0.4,0.6-0.5,1c-0.1,0.4-0.1,1-0.1,1.7h-1c-0.2-1-0.5-2.1-0.9-3c-0.4-1-1-1.9-1.7-2.6v-0.9c0.9,0.1,1.8,0.2,2.8,0.2
	c1,0,1.9,0,2.6,0h15.6c-0.6-0.5-1.1-1-1.8-1.7c-0.6-0.7-1.2-1.3-1.8-2.1c-0.5-0.7-1-1.5-1.3-2.3c-0.4-0.8-0.5-1.7-0.5-2.6
	c0-2,0.7-3.6,2.2-4.7c1.5-1.1,3.4-1.7,5.6-1.7h10.9c0.7,0,1.4,0,1.9,0c0.5-0.1,0.9-0.2,1.2-0.4c0.3-0.2,0.5-0.6,0.6-1.1
	c0.1-0.5,0.1-1.2,0.1-2h1.2c0,0.5,0,0.9,0,1.3c0,0.4,0,0.8,0,1.2c0,0.4,0,0.8,0,1.2c0,0.4,0,0.9,0,1.4c0,0.5,0,0.9,0,1.4
	c0,0.4,0,0.8,0,1.2c0,0.4,0,0.8,0,1.2c0,0.4,0,0.8,0,1.3h-1.2c0-0.7,0-1.3-0.1-1.8c-0.1-0.5-0.2-0.9-0.5-1.1
	c-0.3-0.3-0.6-0.4-1.1-0.5c-0.5-0.1-1.2-0.1-2.1-0.1h-7.9c-1.6,0-2.9,0.1-3.9,0.3c-1,0.2-1.9,0.5-2.5,0.9c-0.6,0.4-1,0.9-1.3,1.6
	c-0.3,0.7-0.4,1.5-0.4,2.4c0,1.2,0.5,2.5,1.4,3.8c0.9,1.3,1.9,2.3,2.9,3.1h11.7c1.5,0,2.6-0.2,3.1-0.6c0.5-0.4,0.7-1.4,0.7-3h1.2
	c0,0.5,0,0.9,0,1.3c0,0.4,0,0.8,0,1.2c0,0.4,0,0.8,0,1.2c0,0.4,0,0.8,0,1.3c0,0.5,0,0.9,0,1.4c0,0.4,0,0.8,0,1.2c0,0.4,0,0.8,0,1.3
	c0,0.4,0,0.8,0,1.3h-1.2c0-1.5-0.2-2.4-0.7-2.8c-0.5-0.4-1.5-0.6-3.1-0.6H39.4z M70,496.4c-0.9,0.4-2.3,0.9-4,1.6
	c-1.7,0.7-3.4,1.4-5.2,2.1c-1.8,0.7-3.5,1.4-5.1,2.1c-1.6,0.6-2.8,1.1-3.6,1.3c-0.8,0.3-1.4,0.7-1.8,1.2c-0.4,0.5-0.6,1.3-0.6,2.2
	h-1.3c0.1-0.5,0.1-1.2,0.1-2.1c0-0.9,0-1.9,0-2.9c0-1,0-1.9,0-2.7c0-0.9-0.1-1.5-0.1-1.9h1.4c0.1,1.3,0.3,2.1,0.7,2.5
	c0.4,0.4,1,0.5,2,0.2l13.6-5.3l-13.3-5.6c-1-0.4-1.8-0.4-2.2,0c-0.5,0.4-0.8,1.1-0.8,2.1h-1.3c0.1-0.4,0.1-0.9,0.1-1.7
	c0-0.7,0-1.5,0-2.2c0-0.8,0-1.5,0-2.2c0-0.7-0.1-1.2-0.1-1.6h1.3c0,1.1,0.3,2,0.8,2.5c0.5,0.5,1.4,1,2.6,1.5L81,499.5
	c1,0.4,1.6,1,2,1.8c0.3,0.7,0.5,1.5,0.5,2.2c0,0.6-0.2,1.1-0.5,1.6c-0.3,0.5-0.8,0.7-1.6,0.7c-0.7,0-1.2-0.3-1.5-0.8
	c-0.3-0.5-0.4-1-0.3-1.5c0-0.1,0-0.3,0.1-0.4c0.1-0.2,0.2-0.3,0.3-0.5c0.1-0.2,0.1-0.3,0.2-0.5c0.1-0.2,0.2-0.3,0.2-0.4
	c0-0.3-0.1-0.6-0.2-0.8c-0.1-0.2-0.3-0.4-0.6-0.6L70,496.4z M65.2,475.2c1.9,0,3.2-0.3,3.9-0.8c0.7-0.6,1-1.3,1-2.2
	c0-0.3,0-0.7-0.1-1.1c-0.1-0.5-0.2-0.9-0.4-1.3c-0.2-0.5-0.3-0.9-0.5-1.2c-0.2-0.4-0.3-0.6-0.5-0.8l0.7-0.4c1,0.9,1.8,1.9,2.3,3
	c0.6,1,0.8,2.2,0.8,3.4c0,1.4-0.4,2.6-1.2,3.4c-0.8,0.8-2,1.2-3.6,1.2H51.3v3.4h-0.9c-0.5-1.6-1.3-2.8-2.4-3.7
	c-1.1-0.8-2.7-1.4-4.8-1.8v-1h6v-7.8h2.1v7.8H65.2z M39.4,461.4c-0.8,0-1.5,0-2,0.1c-0.5,0.1-0.9,0.2-1.2,0.4
	c-0.3,0.2-0.4,0.6-0.5,1c-0.1,0.4-0.1,1-0.1,1.7h-1c-0.2-1-0.5-2.1-0.9-3c-0.4-1-1-1.9-1.7-2.6v-0.9c0.9,0.1,1.8,0.2,2.8,0.2
	c1,0,1.9,0,2.6,0h15.6c-0.6-0.5-1.1-1-1.8-1.7c-0.6-0.7-1.2-1.3-1.8-2.1c-0.5-0.7-1-1.5-1.3-2.3c-0.4-0.8-0.5-1.7-0.5-2.6
	c0-2,0.7-3.6,2.2-4.7c1.5-1.1,3.4-1.7,5.6-1.7h10.9c0.7,0,1.4,0,1.9,0c0.5-0.1,0.9-0.2,1.2-0.4c0.3-0.2,0.5-0.6,0.6-1.1
	c0.1-0.5,0.1-1.2,0.1-2h1.2c0,0.5,0,0.9,0,1.3c0,0.4,0,0.8,0,1.2c0,0.4,0,0.8,0,1.2c0,0.4,0,0.9,0,1.4c0,0.5,0,0.9,0,1.4
	c0,0.4,0,0.8,0,1.2c0,0.4,0,0.8,0,1.2c0,0.4,0,0.8,0,1.3h-1.2c0-0.7,0-1.3-0.1-1.8c-0.1-0.5-0.2-0.9-0.5-1.1
	c-0.3-0.3-0.6-0.4-1.1-0.5c-0.5-0.1-1.2-0.1-2.1-0.1h-7.9c-1.6,0-2.9,0.1-3.9,0.3c-1,0.2-1.9,0.5-2.5,0.9c-0.6,0.4-1,0.9-1.3,1.6
	c-0.3,0.7-0.4,1.5-0.4,2.4c0,1.2,0.5,2.5,1.4,3.8c0.9,1.3,1.9,2.3,2.9,3.1h11.7c1.5,0,2.6-0.2,3.1-0.6c0.5-0.4,0.7-1.4,0.7-3h1.2
	c0,0.5,0,0.9,0,1.3c0,0.4,0,0.8,0,1.2c0,0.4,0,0.8,0,1.2c0,0.4,0,0.8,0,1.3c0,0.5,0,0.9,0,1.4c0,0.4,0,0.8,0,1.2c0,0.4,0,0.8,0,1.3
	c0,0.4,0,0.8,0,1.3h-1.2c0-1.5-0.2-2.4-0.7-2.8c-0.5-0.4-1.5-0.6-3.1-0.6H39.4z M47.8,430.1c0.9,0.1,1.8,0.2,2.6,0.2
	c0.9,0,1.5,0,1.9,0c-0.5-0.7-1-1.4-1.6-2.1c-0.6-0.8-1-1.6-1.5-2.3c-0.5-0.8-0.8-1.6-1.1-2.4c-0.3-0.8-0.4-1.6-0.4-2.4
	c0-1.2,0.3-2.2,1-3.1c0.7-0.9,1.8-1.6,3.5-2.1c-1.1-1.4-2.1-2.8-3-4.4c-1-1.6-1.5-3.2-1.5-4.8c0-1,0.2-1.8,0.6-2.5
	c0.4-0.7,0.9-1.3,1.6-1.8c0.7-0.5,1.5-0.8,2.4-1c0.9-0.2,1.8-0.3,2.7-0.3h11.6c1.4,0,2.3-0.2,2.8-0.6c0.5-0.5,0.8-1.4,0.8-2.7h1.2
	c0,1.3,0,2.9,0,4.8c0,1.9,0,3.5,0,4.9h-1.2c0-1.4-0.3-2.3-0.8-2.7c-0.5-0.5-1.5-0.7-2.8-0.7h-9.8c-0.9,0-1.7,0-2.5,0.1
	c-0.8,0.1-1.5,0.3-2.1,0.6c-0.6,0.3-1.1,0.8-1.4,1.5c-0.4,0.6-0.5,1.5-0.5,2.6c0,0.6,0.1,1.3,0.4,2c0.2,0.7,0.5,1.3,0.9,2
	c0.3,0.6,0.7,1.2,1.1,1.8c0.4,0.5,0.7,0.9,1,1.3h13c1.4,0,2.3-0.2,2.8-0.7c0.5-0.5,0.8-1.4,0.8-2.9h1.2c0,0.7,0,1.5,0,2.4
	c0,0.8,0,1.7,0,2.6c0,0.9,0,1.8,0,2.7c0,0.8,0,1.6,0,2.3h-1.2c0-1.4-0.3-2.3-0.8-2.7c-0.5-0.5-1.5-0.7-2.8-0.7h-9.8
	c-0.9,0-1.7,0-2.5,0.1c-0.8,0.1-1.5,0.3-2.1,0.6c-0.6,0.3-1.1,0.8-1.4,1.4c-0.4,0.6-0.5,1.5-0.5,2.6c0,0.5,0.1,1,0.3,1.7
	c0.2,0.6,0.5,1.2,0.8,1.9c0.4,0.7,0.7,1.3,1.2,1.9c0.4,0.6,0.8,1.1,1.2,1.6h12.8c1.4,0,2.3-0.2,2.8-0.6c0.5-0.5,0.8-1.4,0.8-2.8h1.2
	c0,1.4,0,3.1,0,5c0,1.9,0,3.6,0,5h-1.2c0-1.5-0.3-2.4-0.8-2.9c-0.5-0.5-1.5-0.7-2.8-0.7H55.1c-0.9,0-1.6,0-2.1,0.1
	c-0.5,0-0.9,0.1-1.2,0.3c-0.3,0.2-0.5,0.5-0.6,0.9c-0.1,0.4-0.1,0.9-0.1,1.6h-1c-0.2-1-0.4-2-0.7-2.8c-0.3-0.9-0.8-1.7-1.5-2.4
	V430.1z M64.6,392.7c0.7-0.1,1.4-0.2,2.1-0.4c0.7-0.2,1.4-0.6,2.1-1s1.1-1,1.5-1.7c0.4-0.7,0.6-1.6,0.6-2.7c0-1.9-0.4-3.1-1.2-3.8
	c-0.8-0.7-1.7-1.1-2.7-1.1c-0.7,0-1.4,0.2-1.9,0.5c-0.6,0.3-1,0.7-1.5,1.2s-0.8,1.1-1.1,1.7c-0.4,0.7-0.7,1.3-1.1,2
	c-0.9,1.7-1.9,3.1-3,4.3c-1.1,1.2-2.5,1.8-4.2,1.8c-0.8,0-1.7-0.2-2.4-0.5c-0.8-0.4-1.5-0.9-2.1-1.5c-0.6-0.7-1.1-1.4-1.4-2.3
	c-0.4-0.9-0.6-2-0.6-3.2c0-0.8,0.1-1.6,0.3-2.6c0.2-1,0.5-1.9,1-2.8l5.4-0.4v1c-1.7,0.2-2.9,0.7-3.8,1.6c-0.9,0.8-1.4,2.1-1.4,3.7
	c0,1.3,0.3,2.4,1,3.3c0.6,0.9,1.5,1.4,2.5,1.4c0.8,0,1.5-0.2,2.1-0.5c0.6-0.4,1.1-0.8,1.5-1.4c0.4-0.6,0.8-1.3,1.2-2
	c0.4-0.7,0.7-1.5,1-2.3c0.4-0.7,0.7-1.5,1.1-2.2c0.4-0.7,0.9-1.4,1.4-1.9c0.5-0.5,1.1-0.9,1.9-1.3c0.7-0.4,1.5-0.5,2.4-0.5
	c0.9,0,1.7,0.2,2.6,0.5c0.8,0.3,1.6,0.8,2.2,1.5c0.7,0.7,1.2,1.5,1.6,2.6s0.6,2.3,0.6,3.7c0,1-0.1,2-0.4,3.1
	c-0.3,1.1-0.7,2.1-1.2,2.8l-6.2,0.6V392.7z M60,336c1.7,0,3.4,0.3,4.9,0.9c1.5,0.6,2.8,1.4,3.9,2.5c1.1,1,2,2.3,2.7,3.7
	c0.7,1.4,1,2.8,1,4.4c0,1.6-0.3,3.2-0.8,4.6c-0.6,1.5-1.4,2.8-2.4,3.9c-1,1.1-2.3,2-3.8,2.6c-1.5,0.7-3.2,1-5.1,1
	c-1.7,0-3.3-0.3-4.8-0.8c-1.5-0.6-2.9-1.4-4-2.4c-1.1-1-2-2.3-2.6-3.7c-0.7-1.4-1-2.9-1-4.6c0-1.7,0.3-3.3,0.9-4.7
	c0.6-1.5,1.4-2.8,2.4-3.9c1-1.1,2.3-1.9,3.9-2.5C56.4,336.3,58.1,336,60,336z M60.5,339.6c-1.2,0-2.5,0.1-3.8,0.4
	c-1.4,0.3-2.6,0.8-3.7,1.4c-1.1,0.7-2.1,1.6-2.8,2.6c-0.7,1-1.1,2.3-1.1,3.9c0,1.5,0.3,2.7,1,3.8c0.7,1,1.5,1.8,2.5,2.4
	c1,0.6,2.2,1.1,3.5,1.4c1.2,0.3,2.5,0.4,3.7,0.4c1.1,0,2.4-0.1,3.7-0.4c1.3-0.3,2.5-0.8,3.7-1.4c1.1-0.7,2.1-1.5,2.9-2.5
	c0.7-1.1,1.1-2.4,1.1-4c0-1.5-0.3-2.7-1-3.7c-0.7-1-1.5-1.8-2.5-2.4c-1-0.7-2.1-1.1-3.4-1.4C62.9,339.7,61.7,339.6,60.5,339.6z
	 M49.1,318.1h2.1v6.6H67c1.4,0,2.3-0.4,2.7-1.1c0.4-0.7,0.6-2,0.6-3.7h1.2c0,0.8,0,1.8,0,2.9c0,1,0,2.1,0,3.2c0,1.1,0,2.1,0,3.2
	c0,1,0,2,0,2.7h-1.2c0-1.5-0.3-2.5-0.8-3.2c-0.5-0.7-1.4-1-2.6-1H51.3v3.7h-1c-0.1-0.8-0.4-1.7-0.8-2.5c-0.5-0.8-1.3-1.2-2.4-1.2
	c-0.9,0-1.9-0.1-3-0.2c-1.1-0.2-2.2-0.4-3.3-0.8c-1.1-0.3-2.1-0.7-3.1-1.2c-1-0.5-1.8-1.1-2.5-1.8c-1.3-1.3-2.2-2.5-2.7-3.6
	c-0.5-1.1-0.8-1.9-0.8-2.3c0-0.7,0.2-1.3,0.5-1.8c0.3-0.4,0.8-0.6,1.5-0.6c0.6,0,1,0.2,1.3,0.7c0.3,0.5,0.4,0.9,0.4,1.2
	c0,0.3,0,0.5,0,0.6c-0.1,0.2-0.1,0.4-0.2,0.6c-0.1,0.2-0.1,0.5-0.2,0.8c-0.1,0.3-0.1,0.7-0.1,1.3c0,0.7,0.2,1.4,0.6,1.9
	c0.4,0.5,0.9,0.9,1.6,1.3c0.6,0.3,1.3,0.6,2,0.7c0.7,0.1,1.3,0.2,1.8,0.2h8.2V318.1z M57.1,297.3c0.5,0.1,1,0.1,1.6,0.1
	c0.6,0,1.3,0,2.1-0.1c2.5-0.2,4.6-0.9,6.2-2.3c1.7-1.4,2.5-3.2,2.5-5.6c0-1.6-0.3-3-0.9-4.2c-0.7-1.2-1.4-2.2-2.4-3l0.4-0.7
	c1.6,0.9,3,2.1,4.1,3.7c1.1,1.5,1.6,3.3,1.6,5.2c0,1.4-0.3,2.7-0.9,3.9c-0.6,1.2-1.4,2.2-2.4,3.1c-1,0.9-2.3,1.6-3.7,2.1
	c-1.4,0.5-2.9,0.7-4.6,0.7c-2.1,0-3.9-0.3-5.5-0.8c-1.6-0.5-3-1.2-4.1-2.1c-1.1-0.9-2-2-2.6-3.2c-0.6-1.2-0.9-2.6-0.9-4
	c0-1,0.2-2,0.5-2.9c0.3-1,0.8-1.9,1.5-2.6c0.7-0.8,1.5-1.4,2.6-1.9c1-0.5,2.2-0.7,3.6-0.8c0.4,0,0.7,0,0.9,0.1
	c0.2,0.1,0.3,0.3,0.3,0.7V297.3z M55.6,286.9c0-0.6-0.1-1-0.2-1.3c-0.2-0.3-0.5-0.4-1-0.4c-0.5,0-1.1,0.1-1.7,0.4
	c-0.6,0.2-1.1,0.6-1.6,1c-0.5,0.5-0.9,1-1.2,1.7c-0.3,0.7-0.5,1.4-0.5,2.2c0,1.9,0.6,3.4,1.8,4.5c1.1,1.1,2.6,1.8,4.5,2.2V286.9z
	 M53.9,275.1c-1,0.4-1.7,0.7-2.3,1c-0.6,0.3-1,0.5-1.2,0.8c-0.3,0.3-0.4,0.6-0.5,0.9c-0.1,0.3-0.1,0.7-0.1,1.2h-1.3
	c0.1-0.4,0.1-1.1,0.1-1.9c0-0.9,0-1.8,0-2.7c0-1,0-1.9,0-2.8c0-0.9-0.1-1.6-0.1-2.1h1.3c0,1.6,0.2,2.6,0.7,2.9
	c0.5,0.3,1.6,0.1,3.4-0.5l13.6-5l-13.6-5.5c-1.7-0.7-2.8-0.9-3.3-0.7c-0.5,0.2-0.7,1.1-0.7,2.7h-1.4c0.1-1.2,0.1-2.5,0.1-4
	c0-1.5-0.1-2.6-0.1-3.4h1.3c0,1,0.3,1.7,0.8,2.2c0.5,0.5,1.6,1.1,3.3,1.7l18.6,7.5v0.5L53.9,275.1z M57.1,250c0.5,0.1,1,0.1,1.6,0.1
	c0.6,0,1.3,0,2.1-0.1c2.5-0.2,4.6-0.9,6.2-2.3c1.7-1.4,2.5-3.2,2.5-5.6c0-1.6-0.3-3-0.9-4.2c-0.7-1.2-1.4-2.2-2.4-3l0.4-0.7
	c1.6,0.9,3,2.1,4.1,3.7c1.1,1.5,1.6,3.3,1.6,5.2c0,1.4-0.3,2.7-0.9,3.9c-0.6,1.2-1.4,2.2-2.4,3.1c-1,0.9-2.3,1.6-3.7,2.1
	c-1.4,0.5-2.9,0.7-4.6,0.7c-2.1,0-3.9-0.3-5.5-0.8c-1.6-0.5-3-1.2-4.1-2.1c-1.1-0.9-2-2-2.6-3.2c-0.6-1.2-0.9-2.6-0.9-4
	c0-1,0.2-2,0.5-2.9c0.3-1,0.8-1.9,1.5-2.6c0.7-0.8,1.5-1.4,2.6-1.9c1-0.5,2.2-0.7,3.6-0.8c0.4,0,0.7,0,0.9,0.1
	c0.2,0.1,0.3,0.3,0.3,0.7V250z M55.6,239.5c0-0.6-0.1-1-0.2-1.3c-0.2-0.3-0.5-0.4-1-0.4c-0.5,0-1.1,0.1-1.7,0.4
	c-0.6,0.2-1.1,0.6-1.6,1c-0.5,0.5-0.9,1-1.2,1.7c-0.3,0.7-0.5,1.4-0.5,2.2c0,1.9,0.6,3.4,1.8,4.5c1.1,1.1,2.6,1.8,4.5,2.2V239.5z
	 M53.1,224.5c-0.7-0.5-1.3-1-1.9-1.7c-0.7-0.6-1.2-1.2-1.8-1.9c-0.5-0.7-0.9-1.3-1.2-1.9c-0.3-0.6-0.5-1.2-0.5-1.8
	c0-0.8,0.2-1.5,0.6-2c0.4-0.6,0.9-0.9,1.7-0.9c0.8,0,1.4,0.2,1.8,0.7c0.4,0.5,0.6,0.9,0.6,1.3c0,0.4,0,0.7-0.1,0.9
	c-0.1,0.2-0.3,0.5-0.4,0.7c-0.2,0.2-0.3,0.5-0.4,0.8c-0.1,0.3-0.2,0.6-0.2,1.1c0,0.3,0.1,0.7,0.4,1.2c0.3,0.5,0.7,1,1.1,1.5
	c0.5,0.5,1,1,1.6,1.3c0.6,0.4,1.2,0.5,1.8,0.5h10.4c0.8,0,1.4,0,2-0.1c0.5-0.1,0.9-0.4,1.1-0.8c0.3-0.4,0.4-0.9,0.5-1.7
	c0.1-0.7,0.1-1.7,0.1-2.9h1.2c0,0.7,0,1.7,0,2.8c0,1.1,0,2.2,0,3.4c0,1.2,0,2.3,0,3.4c0,1.1,0,2,0,2.8h-1.2c0-1.7-0.2-2.7-0.6-3.2
	c-0.4-0.5-1.5-0.7-3.1-0.7H55.1c-0.9,0-1.6,0-2.1,0.1c-0.5,0.1-0.9,0.2-1.2,0.4c-0.3,0.2-0.5,0.5-0.6,0.9c-0.1,0.4-0.1,0.9-0.1,1.6
	h-1c-0.2-1-0.4-2-0.7-2.8c-0.3-0.9-0.8-1.7-1.5-2.4v-0.9c0.9,0.1,1.8,0.2,2.7,0.2C51.5,224.5,52.3,224.5,53.1,224.5z M70,201.9
	c-0.9,0.4-2.3,0.9-4,1.6c-1.7,0.7-3.4,1.4-5.2,2.1c-1.8,0.7-3.5,1.4-5.1,2.1c-1.6,0.6-2.8,1.1-3.6,1.3c-0.8,0.3-1.4,0.7-1.8,1.2
	c-0.4,0.5-0.6,1.3-0.6,2.2h-1.3c0.1-0.5,0.1-1.2,0.1-2.1c0-0.9,0-1.9,0-2.9c0-1,0-1.9,0-2.7c0-0.9-0.1-1.5-0.1-1.9h1.4
	c0.1,1.3,0.3,2.1,0.7,2.5c0.4,0.4,1,0.5,2,0.2l13.6-5.3l-13.3-5.6c-1-0.4-1.8-0.4-2.2,0c-0.5,0.4-0.8,1.1-0.8,2.1h-1.3
	c0.1-0.4,0.1-0.9,0.1-1.7c0-0.7,0-1.5,0-2.2s0-1.5,0-2.2c0-0.7-0.1-1.2-0.1-1.6h1.3c0,1.1,0.3,2,0.8,2.5c0.5,0.5,1.4,1,2.6,1.5
	L81,205.1c1,0.4,1.6,1,2,1.8c0.3,0.7,0.5,1.5,0.5,2.2c0,0.6-0.2,1.1-0.5,1.6c-0.3,0.5-0.8,0.7-1.6,0.7c-0.7,0-1.2-0.3-1.5-0.8
	c-0.3-0.5-0.4-1-0.3-1.5c0-0.1,0-0.3,0.1-0.4c0.1-0.2,0.2-0.3,0.3-0.5c0.1-0.2,0.1-0.3,0.2-0.5c0.1-0.2,0.2-0.3,0.2-0.4
	c0-0.3-0.1-0.6-0.2-0.8c-0.1-0.2-0.3-0.4-0.6-0.6L70,201.9z M54.2,168.1c-0.9,0-1.7,0.2-2.3,0.6c-0.7,0.4-1.2,0.9-1.5,1.5
	c-0.4,0.6-0.6,1.3-0.8,2s-0.2,1.4-0.2,2c0,1,0.2,2.1,0.7,3.1c0.4,1,1.1,1.9,2,2.7c0.9,0.8,2,1.5,3.3,2c1.3,0.5,2.8,0.7,4.6,0.7
	c2.9,0,5.2-0.7,7.1-2.2c1.9-1.5,2.8-3.6,2.8-6.2c0-0.4-0.1-1-0.2-1.7c-0.2-0.7-0.5-1.4-0.8-2.1s-0.7-1.2-1.1-1.7
	c-0.4-0.5-0.9-0.7-1.4-0.7H54.2z M39.4,168.1c-0.8,0-1.5,0-2,0.1c-0.5,0.1-0.9,0.2-1.2,0.5c-0.3,0.2-0.4,0.6-0.5,1
	c-0.1,0.4-0.1,1-0.1,1.7h-1c-0.2-1-0.5-2.1-0.9-3c-0.4-1-1-1.9-1.7-2.6v-0.9c0.9,0.1,1.8,0.2,2.8,0.2c1,0,1.9,0,2.6,0h29.6
	c1.1,0,1.8-0.3,2-0.8c0.2-0.6,0.3-1.5,0.2-2.6h1c0.2,0.6,0.5,1.5,1,2.7c0.5,1.1,0.9,2.2,1.3,3.2c0.1,0.2,0.1,0.3,0,0.4
	c-0.1,0.1-0.2,0.1-0.4,0.1h-3.7c1.3,1.3,2.2,2.7,2.9,4.2c0.6,1.4,0.9,2.8,0.9,4.2c0,1.4-0.3,2.8-0.9,4c-0.7,1.2-1.5,2.2-2.6,3
	c-1,0.8-2.2,1.5-3.6,2c-1.4,0.5-2.8,0.7-4.3,0.7c-1.8,0-3.4-0.3-5-1c-1.6-0.7-3-1.5-4.2-2.7c-1.2-1.1-2.2-2.4-2.9-3.9
	c-0.7-1.5-1.1-3.1-1.1-4.8c0-0.8,0.1-1.6,0.3-2.4c0.2-0.9,0.5-1.9,1.1-3.1H39.4z M59.7,144.3c1.1,3.6,2.1,6.3,3,8.1
	c0.9,1.8,2.1,2.6,3.5,2.6c1.5,0,2.5-0.4,3.1-1.1c0.5-0.8,0.8-1.9,0.8-3.2c0-1.2-0.3-2.4-1-3.5c-0.7-1.1-1.4-2.1-2.3-2.9H59.7z
	 M69.7,136.9c0.7,0.7,1.3,1.5,1.9,2.3c0.6,0.8,0.8,1.6,0.8,2.4c0,0.8-0.4,1.4-1.1,1.9c-0.7,0.5-1.8,0.7-3.1,0.8
	c1.3,1.2,2.3,2.5,3.1,4c0.7,1.5,1.1,3,1.1,4.6c0,1.5-0.5,2.7-1.4,3.7c-1,1-2.2,1.5-3.7,1.4c-1.2,0-2.2-0.4-3.1-1.1
	c-0.9-0.7-1.6-1.7-2.3-2.9c-0.7-1.2-1.3-2.6-1.8-4.3c-0.6-1.7-1.1-3.5-1.8-5.4H55c-1.4,0-2.6,0.3-3.5,1c-0.9,0.7-1.4,1.9-1.4,3.9
	c0,1.4,0.4,2.6,1.2,3.7c0.8,1,1.7,1.6,2.9,1.6c0.8,0,1.4,0.2,1.7,0.5c0.4,0.3,0.5,0.7,0.5,1.1c0,0.4-0.2,0.7-0.5,0.9
	c-0.3,0.2-0.7,0.3-1.3,0.3c-0.9,0-1.7-0.4-2.5-1.2c-0.8-0.8-1.7-2.2-2.7-4.1c-0.6-1.1-1-2-1.3-2.6c-0.3-0.7-0.4-1.5-0.4-2.2
	c0-1.6,0.5-2.9,1.4-4.1c0.9-1.2,2.3-1.8,4.1-1.8h13.3c1.8,0,2.9-0.4,3.1-1.2c0.3-0.8,0-1.8-0.9-3.1L69.7,136.9z M70,123.6
	c-0.9,0.4-2.3,0.9-4,1.6c-1.7,0.7-3.4,1.4-5.2,2.1c-1.8,0.7-3.5,1.4-5.1,2.1c-1.6,0.6-2.8,1.1-3.6,1.3c-0.8,0.3-1.4,0.7-1.8,1.2
	c-0.4,0.5-0.6,1.3-0.6,2.2h-1.3c0.1-0.5,0.1-1.2,0.1-2.1c0-0.9,0-1.9,0-2.9c0-1,0-1.9,0-2.7c0-0.9-0.1-1.5-0.1-1.9h1.4
	c0.1,1.3,0.3,2.1,0.7,2.5c0.4,0.4,1,0.5,2,0.2l13.6-5.3l-13.3-5.6c-1-0.4-1.8-0.4-2.2-0.1c-0.5,0.4-0.8,1.1-0.8,2.2h-1.3
	c0.1-0.4,0.1-0.9,0.1-1.7c0-0.7,0-1.5,0-2.2c0-0.8,0-1.5,0-2.2c0-0.7-0.1-1.2-0.1-1.6h1.3c0,1.1,0.3,2,0.8,2.5
	c0.5,0.5,1.4,1,2.6,1.5L81,126.7c1,0.4,1.6,1,2,1.8c0.3,0.7,0.5,1.5,0.5,2.2c0,0.6-0.2,1.1-0.5,1.6c-0.3,0.5-0.8,0.7-1.6,0.7
	c-0.7,0-1.2-0.3-1.5-0.8c-0.3-0.5-0.4-1-0.3-1.5c0-0.1,0-0.3,0.1-0.4c0.1-0.2,0.2-0.3,0.3-0.5c0.1-0.2,0.1-0.3,0.2-0.5
	c0.1-0.2,0.2-0.3,0.2-0.4c0-0.3-0.1-0.6-0.2-0.8c-0.1-0.2-0.3-0.4-0.6-0.6L70,123.6z M39.4,89.7c-0.8,0-1.5,0-2,0.1
	c-0.5,0.1-0.9,0.2-1.2,0.5c-0.3,0.2-0.4,0.6-0.5,1c-0.1,0.4-0.1,1-0.1,1.7h-1c-0.2-1-0.5-2-0.9-3c-0.4-1-1-1.9-1.7-2.6v-0.9
	c0.9,0.1,1.8,0.2,2.8,0.2c1,0,1.9,0.1,2.6,0.1h29.1c1.4,0,2.3-0.2,2.9-0.7c0.6-0.4,0.8-1.4,0.8-2.8h1.2c0,0.7,0,1.5,0,2.4
	c0,0.9,0,1.8,0,2.6c0,0.9,0,1.8,0,2.7c0,0.8,0,1.6,0,2.2h-1.2c0-1.5-0.2-2.4-0.7-2.8c-0.5-0.5-1.5-0.7-3-0.7H39.4z M67.1,73.2
	c1.4,0,2.3-0.2,2.7-0.7c0.4-0.5,0.6-1.4,0.6-2.8h1.2c0,0.5,0,0.9,0,1.3c0,0.4,0,0.8,0,1.2c0,0.4,0,0.8,0,1.2c0,0.4,0,0.8,0,1.3
	c0,0.5,0,0.9,0,1.4c0,0.4,0,0.8,0,1.2c0,0.4,0,0.8,0,1.3c0,0.4,0,0.8,0,1.3h-1.2c0-1.4-0.2-2.4-0.6-2.8c-0.4-0.4-1.3-0.7-2.7-0.7
	h-12c-0.9,0-1.6,0-2.1,0.1c-0.5,0.1-0.9,0.2-1.2,0.4c-0.3,0.2-0.5,0.5-0.6,0.9c-0.1,0.4-0.1,0.9-0.1,1.6h-1c-0.2-1-0.4-2-0.7-2.8
	c-0.3-0.9-0.8-1.7-1.5-2.4V73c0.9,0.1,1.8,0.2,2.8,0.2c1,0,1.9,0,2.6,0H67.1z M37.1,77.2c-0.7,0-1.2-0.2-1.7-0.7
	c-0.5-0.5-0.7-1.1-0.7-1.7c0-0.7,0.2-1.2,0.7-1.7c0.5-0.5,1.1-0.7,1.7-0.7c0.7,0,1.2,0.2,1.7,0.7c0.5,0.5,0.7,1.1,0.7,1.7
	c0,0.6-0.2,1.2-0.7,1.7C38.3,77,37.8,77.2,37.1,77.2z M49.1,52.4h2.1v6.6H67c1.4,0,2.3-0.4,2.7-1.1c0.4-0.8,0.6-2,0.6-3.7h1.2
	c0,0.8,0,1.8,0,2.9c0,1,0,2.1,0,3.2c0,1.1,0,2.1,0,3.2c0,1.1,0,2,0,2.7h-1.2c0-1.5-0.3-2.5-0.8-3.2c-0.5-0.7-1.4-1-2.6-1H51.3v3.7
	h-1c-0.1-0.8-0.4-1.7-0.8-2.5c-0.5-0.8-1.3-1.2-2.4-1.2c-0.9,0-1.9-0.1-3-0.2c-1.1-0.2-2.2-0.4-3.3-0.8c-1.1-0.3-2.1-0.7-3.1-1.2
	c-1-0.5-1.8-1.1-2.5-1.8c-1.3-1.3-2.2-2.5-2.7-3.6c-0.5-1.1-0.8-1.9-0.8-2.3c0-0.8,0.2-1.3,0.5-1.8c0.3-0.4,0.8-0.6,1.5-0.6
	c0.6,0,1,0.2,1.3,0.7c0.3,0.4,0.4,0.9,0.4,1.2c0,0.3,0,0.5,0,0.6c-0.1,0.2-0.1,0.4-0.2,0.6c-0.1,0.2-0.1,0.4-0.2,0.8
	C35,54,35,54.4,35,55c0,0.8,0.2,1.4,0.6,1.9c0.4,0.5,0.9,0.9,1.6,1.3c0.6,0.3,1.3,0.6,2,0.7c0.7,0.1,1.3,0.2,1.8,0.2h8.2V52.4z
	 M57.1,46.6c0.5,0.1,1,0.2,1.6,0.2c0.6,0,1.3,0,2.1-0.1c2.5-0.2,4.6-0.9,6.2-2.3c1.7-1.4,2.5-3.2,2.5-5.6c0-1.6-0.3-3-0.9-4.2
	c-0.7-1.2-1.4-2.2-2.4-3l0.4-0.7c1.6,0.9,3,2.1,4.1,3.7c1.1,1.5,1.6,3.2,1.6,5.2c0,1.4-0.3,2.7-0.9,3.9c-0.6,1.2-1.4,2.2-2.4,3.1
	c-1,0.9-2.3,1.6-3.7,2.1c-1.4,0.5-2.9,0.7-4.6,0.7c-2.1,0-3.9-0.3-5.5-0.8c-1.6-0.5-3-1.2-4.1-2.1c-1.1-0.9-2-2-2.6-3.2
	c-0.6-1.2-0.9-2.6-0.9-3.9c0-1,0.2-2,0.5-2.9c0.3-1,0.8-1.9,1.5-2.6c0.7-0.8,1.5-1.4,2.6-1.9c1-0.5,2.2-0.8,3.6-0.8
	c0.4,0,0.7,0,0.9,0.1c0.2,0.1,0.3,0.3,0.3,0.7V46.6z M55.6,36.2c0-0.6-0.1-1-0.2-1.3c-0.2-0.3-0.5-0.4-1-0.4c-0.5,0-1.1,0.1-1.7,0.4
	c-0.6,0.2-1.1,0.6-1.6,1c-0.5,0.5-0.9,1-1.2,1.7c-0.3,0.7-0.5,1.4-0.5,2.2c0,1.9,0.6,3.4,1.8,4.5c1.1,1.1,2.6,1.8,4.5,2.2V36.2z"/>
</svg>
