<?xml version="1.0" encoding="utf-8"?>
<!-- Generator: Adobe Illustrator 26.0.3, SVG Export Plug-In . SVG Version: 6.00 Build 0)  -->
<svg version="1.1" id="Layer_1" xmlns="http://www.w3.org/2000/svg" xmlns:xlink="http://www.w3.org/1999/xlink" x="0px" y="0px"
	 viewBox="0 0 115.3 1146.4" style="enable-background:new 0 0 115.3 1146.4;" xml:space="preserve">
<style type="text/css">
	.st0{fill:#010202;}
</style>
<path class="st0" d="M62.9,749.4V748c1-0.2,1.9-0.5,2.9-0.8s1.8-0.7,2.5-1.2c0.7-0.6,1.4-1.3,1.8-2.1c0.4-0.8,0.6-2,0.6-3.3
	c0-2.5-0.7-4.6-2-6.2c-1.3-1.6-3-2.4-5-2.4c-1.2,0-2.2,0.2-3.1,0.6c-0.9,0.4-1.7,1-2.4,1.7c-0.7,0.7-1.3,1.5-1.9,2.5
	c-0.6,0.9-1.1,1.9-1.7,2.9c-0.5,1-1.1,2.1-1.8,3.1c-0.7,1-1.4,1.9-2.2,2.8c-0.8,0.8-1.8,1.5-2.8,2c-1.1,0.5-2.3,0.7-3.6,0.7
	c-1.7,0-3.2-0.3-4.5-0.8c-1.3-0.6-2.3-1.3-3.1-2.3c-0.8-1-1.5-2.1-1.9-3.4c-0.4-1.3-0.6-2.7-0.6-4.2c0-0.5,0-1,0.1-1.4
	c0-0.5,0.1-0.9,0.1-1.4c0.1-0.5,0.1-0.9,0.2-1.4c0.1-0.5,0.1-1,0.2-1.6l6.7-0.8v1.3c-2,0.3-3.4,0.9-4.4,1.7c-1,0.8-1.5,2.2-1.5,4.3
	c0,2.5,0.7,4.4,2.1,5.7c1.3,1.2,2.9,1.9,4.8,1.9c1.2,0,2.2-0.3,3.2-0.8c0.9-0.5,1.7-1.2,2.5-2c0.7-0.8,1.4-1.8,2-2.8
	c0.6-1,1.1-2.1,1.7-3.2c0.6-1,1.1-2,1.8-3c0.6-1,1.3-1.8,2-2.6c0.8-0.7,1.7-1.4,2.7-1.8c1-0.5,2.1-0.7,3.4-0.7
	c1.8,0,3.3,0.4,4.6,1.1c1.3,0.7,2.4,1.6,3.3,2.7c0.9,1.1,1.5,2.4,2,3.9c0.4,1.4,0.6,2.8,0.6,4.2c0,1.3-0.1,2.6-0.4,3.9
	c-0.3,1.2-0.6,2.4-1.1,3.4L62.9,749.4z M47.7,718.1c0.9,0.1,1.7,0.2,2.5,0.2c0.8,0,1.3,0,1.6,0c-0.4-0.5-0.9-1.1-1.4-1.8
	c-0.5-0.7-0.9-1.5-1.4-2.2c-0.4-0.7-0.7-1.5-1-2.3c-0.3-0.8-0.4-1.6-0.4-2.2c0-1.3,0.3-2.5,1-3.6c0.6-1.1,1.4-2.1,2.5-2.9
	c1-0.8,2.2-1.4,3.6-1.9c1.3-0.5,2.7-0.7,4.1-0.7c1.8,0,3.6,0.3,5.2,0.9c1.6,0.6,3.1,1.5,4.3,2.5c1.3,1.1,2.3,2.4,3,4
	c0.7,1.5,1.1,3.1,1.1,4.9c0,0.7-0.1,1.4-0.3,2.4c-0.2,0.9-0.6,1.9-1.3,2.8h7.7c0.7,0,1.3,0,1.8-0.1c0.5-0.1,0.9-0.3,1.2-0.7
	c0.3-0.3,0.5-0.8,0.6-1.4c0.1-0.7,0.2-1.5,0.2-2.6h1.2c-0.1,0.6-0.1,1.4-0.1,2.6c0,1.1,0,2.3,0,3.5c0,1.2,0,2.4,0,3.5
	c0,1.1,0.1,1.9,0.1,2.4h-1.2c0-1.7-0.2-2.8-0.7-3.4c-0.5-0.6-1.5-0.8-3-0.8H55c-0.9,0-1.6,0-2.1,0.1c-0.5,0.1-0.9,0.2-1.2,0.4
	c-0.3,0.2-0.5,0.5-0.6,0.9c-0.1,0.4-0.1,0.9-0.1,1.6h-1c-0.2-1-0.4-2-0.7-2.8c-0.3-0.9-0.8-1.7-1.5-2.4V718.1z M66.9,718.3
	c0.3-0.2,0.7-0.4,1.2-0.7c0.4-0.3,0.8-0.7,1.3-1.2c0.4-0.5,0.7-1.1,1-1.8c0.3-0.7,0.4-1.6,0.4-2.5c0-1.4-0.3-2.6-0.9-3.7
	c-0.7-1.1-1.5-2-2.4-2.6c-1-0.7-2.1-1.2-3.3-1.6c-1.2-0.4-2.4-0.5-3.6-0.5c-1.4,0-2.7,0.2-4,0.5c-1.3,0.3-2.4,0.7-3.4,1.4
	c-0.9,0.6-1.7,1.4-2.2,2.4c-0.6,1-0.8,2.1-0.8,3.4c0,0.5,0.1,1.1,0.4,1.8c0.2,0.7,0.5,1.3,0.8,2c0.4,0.7,0.7,1.3,1.1,1.9
	c0.4,0.6,0.7,1,1,1.3H66.9z M59.5,682.5c1.1,3.6,2.1,6.3,3,8.1c0.9,1.8,2.1,2.6,3.5,2.6c1.5,0,2.5-0.4,3.1-1.1
	c0.5-0.8,0.8-1.9,0.8-3.2c0-1.2-0.3-2.4-1-3.5c-0.7-1.1-1.4-2.1-2.3-2.9H59.5z M69.6,675.1c0.7,0.7,1.3,1.5,1.9,2.3
	c0.6,0.8,0.8,1.6,0.8,2.4c0,0.8-0.4,1.4-1.1,1.9c-0.7,0.5-1.8,0.7-3.1,0.8c1.3,1.2,2.3,2.5,3.1,4c0.7,1.5,1.1,3,1.1,4.6
	c0,1.5-0.5,2.7-1.4,3.7c-1,1-2.2,1.5-3.7,1.4c-1.2,0-2.2-0.4-3.1-1.1c-0.9-0.7-1.6-1.7-2.3-2.9c-0.7-1.2-1.3-2.6-1.8-4.3
	c-0.6-1.7-1.1-3.5-1.8-5.4h-3.4c-1.4,0-2.6,0.3-3.5,1c-0.9,0.7-1.4,1.9-1.4,3.9c0,1.4,0.4,2.6,1.2,3.7c0.8,1,1.7,1.6,2.9,1.6
	c0.8,0,1.4,0.2,1.7,0.5c0.4,0.3,0.5,0.7,0.5,1.1c0,0.4-0.2,0.7-0.5,0.9c-0.3,0.2-0.7,0.3-1.3,0.3c-0.9,0-1.7-0.4-2.5-1.2
	c-0.8-0.8-1.7-2.2-2.7-4.1c-0.6-1.1-1-2-1.3-2.6c-0.3-0.7-0.4-1.5-0.4-2.2c0-1.6,0.5-2.9,1.4-4.1c0.9-1.2,2.3-1.8,4.1-1.8h13.3
	c1.8,0,2.9-0.4,3.1-1.2c0.3-0.8,0-1.8-0.9-3.1L69.6,675.1z M65,665.8c1.9,0,3.2-0.3,3.9-0.8c0.7-0.6,1-1.3,1-2.2
	c0-0.3,0-0.7-0.1-1.1c-0.1-0.5-0.2-0.9-0.4-1.3c-0.2-0.5-0.3-0.9-0.5-1.2c-0.2-0.4-0.3-0.6-0.5-0.8l0.7-0.4c1,0.9,1.8,1.9,2.3,3
	c0.6,1,0.8,2.2,0.8,3.4c0,1.4-0.4,2.6-1.2,3.4c-0.8,0.8-2,1.2-3.6,1.2H51.1v3.4h-0.9c-0.5-1.6-1.3-2.8-2.4-3.7
	c-1.1-0.8-2.7-1.4-4.8-1.8v-1h6V658h2.1v7.8H65z M66.9,648.6c1.4,0,2.3-0.2,2.7-0.7c0.4-0.5,0.6-1.4,0.6-2.8h1.2c0,0.5,0,0.9,0,1.3
	c0,0.4,0,0.8,0,1.2c0,0.4,0,0.8,0,1.2c0,0.4,0,0.8,0,1.3c0,0.5,0,0.9,0,1.4c0,0.4,0,0.8,0,1.2c0,0.4,0,0.8,0,1.3c0,0.4,0,0.8,0,1.3
	h-1.2c0-1.4-0.2-2.4-0.6-2.8c-0.4-0.5-1.3-0.7-2.7-0.7H55c-0.9,0-1.6,0-2.1,0.1c-0.5,0.1-0.9,0.2-1.2,0.4c-0.3,0.2-0.5,0.5-0.6,0.9
	c-0.1,0.4-0.1,0.9-0.1,1.6h-1c-0.2-1-0.4-2-0.7-2.8c-0.3-0.9-0.8-1.7-1.5-2.4v-0.9c0.9,0.1,1.8,0.2,2.8,0.2c1,0,1.9,0,2.6,0H66.9z
	 M37,652.6c-0.7,0-1.2-0.2-1.7-0.7c-0.5-0.5-0.7-1.1-0.7-1.7c0-0.7,0.2-1.2,0.7-1.7c0.5-0.5,1.1-0.7,1.7-0.7c0.7,0,1.2,0.2,1.7,0.7
	c0.5,0.5,0.7,1.1,0.7,1.7c0,0.7-0.2,1.2-0.7,1.7C38.2,652.4,37.6,652.6,37,652.6z M59.5,627.4c1.1,3.6,2.1,6.3,3,8.1
	c0.9,1.8,2.1,2.6,3.5,2.6c1.5,0,2.5-0.4,3.1-1.1c0.5-0.8,0.8-1.9,0.8-3.2c0-1.2-0.3-2.4-1-3.5c-0.7-1.1-1.4-2.1-2.3-2.9H59.5z
	 M69.6,620.1c0.7,0.7,1.3,1.5,1.9,2.3c0.6,0.8,0.8,1.6,0.8,2.4c0,0.8-0.4,1.4-1.1,1.9c-0.7,0.5-1.8,0.7-3.1,0.8
	c1.3,1.2,2.3,2.5,3.1,4c0.7,1.5,1.1,3,1.1,4.6c0,1.5-0.5,2.7-1.4,3.7c-1,1-2.2,1.5-3.7,1.4c-1.2,0-2.2-0.4-3.1-1.1
	c-0.9-0.7-1.6-1.7-2.3-2.9c-0.7-1.2-1.3-2.6-1.8-4.3c-0.6-1.7-1.1-3.5-1.8-5.4h-3.4c-1.4,0-2.6,0.3-3.5,1c-0.9,0.7-1.4,1.9-1.4,3.9
	c0,1.4,0.4,2.6,1.2,3.7c0.8,1,1.7,1.6,2.9,1.6c0.8,0,1.4,0.2,1.7,0.5c0.4,0.3,0.5,0.7,0.5,1.1c0,0.4-0.2,0.7-0.5,0.9
	c-0.3,0.2-0.7,0.3-1.3,0.3c-0.9,0-1.7-0.4-2.5-1.2c-0.8-0.8-1.7-2.2-2.7-4.1c-0.6-1.1-1-2-1.3-2.6c-0.3-0.7-0.4-1.5-0.4-2.2
	c0-1.6,0.5-2.9,1.4-4.1c0.9-1.2,2.3-1.8,4.1-1.8h13.3c1.8,0,2.9-0.4,3.1-1.2c0.3-0.8,0-1.8-0.9-3.1L69.6,620.1z M39.2,613
	c-0.8,0-1.5,0-2,0.1c-0.5,0.1-0.9,0.2-1.2,0.5c-0.3,0.2-0.4,0.6-0.5,1c-0.1,0.4-0.1,1-0.1,1.7h-1c-0.2-1-0.5-2.1-0.9-3
	c-0.4-1-1-1.9-1.7-2.6v-0.9c0.9,0.1,1.8,0.2,2.8,0.2c1,0,1.9,0,2.6,0h29.1c1.4,0,2.3-0.2,2.9-0.7c0.6-0.5,0.8-1.4,0.8-2.8h1.2
	c0,0.7,0,1.5,0,2.4c0,0.9,0,1.8,0,2.6c0,0.9,0,1.8,0,2.7c0,0.8,0,1.6,0,2.2h-1.2c0-1.5-0.2-2.4-0.7-2.8c-0.5-0.5-1.5-0.7-3-0.7H39.2
	z M53.8,584.8c-1,0.4-1.7,0.7-2.3,1c-0.6,0.3-1,0.5-1.2,0.8c-0.3,0.3-0.4,0.6-0.5,0.9c-0.1,0.3-0.1,0.7-0.1,1.2h-1.3
	c0.1-0.4,0.1-1.1,0.1-1.9c0-0.9,0-1.8,0-2.7c0-1,0-1.9,0-2.8c0-0.9-0.1-1.6-0.1-2.1h1.3c0,1.6,0.2,2.6,0.7,2.9
	c0.5,0.3,1.6,0.1,3.4-0.5l13.6-5l-13.6-5.5c-1.7-0.7-2.8-0.9-3.3-0.7c-0.5,0.2-0.7,1.1-0.7,2.7h-1.4c0.1-1.2,0.1-2.5,0.1-4
	c0-1.5-0.1-2.6-0.1-3.4h1.3c0,1,0.3,1.7,0.8,2.2c0.5,0.5,1.6,1.1,3.3,1.7l18.6,7.5v0.5L53.8,584.8z M59.5,548.7
	c1.1,3.6,2.1,6.3,3,8.1c0.9,1.8,2.1,2.6,3.5,2.6c1.5,0,2.5-0.4,3.1-1.1c0.5-0.8,0.8-1.9,0.8-3.2c0-1.2-0.3-2.4-1-3.5
	c-0.7-1.1-1.4-2.1-2.3-2.9H59.5z M69.6,541.3c0.7,0.7,1.3,1.5,1.9,2.3c0.6,0.8,0.8,1.6,0.8,2.4c0,0.8-0.4,1.4-1.1,1.9
	c-0.7,0.5-1.8,0.7-3.1,0.8c1.3,1.2,2.3,2.5,3.1,4c0.7,1.5,1.1,3,1.1,4.6c0,1.5-0.5,2.7-1.4,3.7c-1,1-2.2,1.5-3.7,1.4
	c-1.2,0-2.2-0.4-3.1-1.1c-0.9-0.7-1.6-1.7-2.3-2.9c-0.7-1.2-1.3-2.6-1.8-4.3c-0.6-1.7-1.1-3.5-1.8-5.4h-3.4c-1.4,0-2.6,0.3-3.5,1
	c-0.9,0.7-1.4,1.9-1.4,3.9c0,1.4,0.4,2.6,1.2,3.7c0.8,1,1.7,1.6,2.9,1.6c0.8,0,1.4,0.2,1.7,0.5c0.4,0.3,0.5,0.7,0.5,1.1
	c0,0.4-0.2,0.7-0.5,0.9c-0.3,0.2-0.7,0.3-1.3,0.3c-0.9,0-1.7-0.4-2.5-1.2c-0.8-0.8-1.7-2.2-2.7-4.1c-0.6-1.1-1-2-1.3-2.6
	c-0.3-0.7-0.4-1.5-0.4-2.2c0-1.6,0.5-2.9,1.4-4.1c0.9-1.2,2.3-1.8,4.1-1.8h13.3c1.8,0,2.9-0.4,3.1-1.2c0.3-0.8,0-1.8-0.9-3.1
	L69.6,541.3z M53,531.3c-0.7-0.5-1.3-1-1.9-1.7c-0.7-0.6-1.2-1.2-1.8-1.9c-0.5-0.7-0.9-1.3-1.2-1.9c-0.3-0.6-0.5-1.2-0.5-1.8
	c0-0.8,0.2-1.5,0.6-2.1c0.4-0.6,0.9-0.9,1.7-0.9c0.8,0,1.4,0.2,1.8,0.7c0.4,0.5,0.6,0.9,0.6,1.3c0,0.4,0,0.7-0.1,0.9
	c-0.1,0.2-0.3,0.5-0.4,0.7c-0.2,0.2-0.3,0.5-0.4,0.8c-0.1,0.3-0.2,0.6-0.2,1.1c0,0.3,0.1,0.7,0.4,1.2c0.3,0.5,0.7,1,1.1,1.5
	c0.5,0.5,1,1,1.6,1.3c0.6,0.4,1.2,0.5,1.8,0.5h10.4c0.8,0,1.4,0,2-0.1c0.5-0.1,0.9-0.4,1.1-0.8s0.4-0.9,0.5-1.7
	c0.1-0.7,0.1-1.7,0.1-2.9h1.2c0,0.7,0,1.7,0,2.8c0,1.1,0,2.2,0,3.4s0,2.3,0,3.4c0,1.1,0,2,0,2.8h-1.2c0-1.7-0.2-2.7-0.6-3.2
	c-0.4-0.5-1.5-0.7-3.1-0.7H55c-0.9,0-1.6,0-2.1,0.1c-0.5,0.1-0.9,0.2-1.2,0.4c-0.3,0.2-0.5,0.5-0.6,0.9c-0.1,0.4-0.1,0.9-0.1,1.6h-1
	c-0.2-1-0.4-2-0.7-2.8c-0.3-0.9-0.8-1.7-1.5-2.4v-0.9c0.9,0.1,1.8,0.2,2.7,0.2C51.3,531.3,52.2,531.3,53,531.3z M66.9,512
	c1.4,0,2.3-0.2,2.7-0.7c0.4-0.5,0.6-1.4,0.6-2.8h1.2c0,0.5,0,0.9,0,1.3c0,0.4,0,0.8,0,1.2c0,0.4,0,0.8,0,1.2c0,0.4,0,0.8,0,1.3
	c0,0.5,0,0.9,0,1.4c0,0.4,0,0.8,0,1.2c0,0.4,0,0.8,0,1.3c0,0.4,0,0.8,0,1.3h-1.2c0-1.4-0.2-2.4-0.6-2.8c-0.4-0.5-1.3-0.7-2.7-0.7H55
	c-0.9,0-1.6,0-2.1,0.1c-0.5,0.1-0.9,0.2-1.2,0.4c-0.3,0.2-0.5,0.5-0.6,0.9c-0.1,0.4-0.1,0.9-0.1,1.6h-1c-0.2-1-0.4-2-0.7-2.8
	c-0.3-0.9-0.8-1.7-1.5-2.4v-0.9c0.9,0.1,1.8,0.2,2.8,0.2c1,0,1.9,0,2.6,0H66.9z M37,516c-0.7,0-1.2-0.2-1.7-0.7
	c-0.5-0.5-0.7-1.1-0.7-1.7s0.2-1.2,0.7-1.7c0.5-0.5,1.1-0.7,1.7-0.7c0.7,0,1.2,0.2,1.7,0.7c0.5,0.5,0.7,1.1,0.7,1.7
	s-0.2,1.2-0.7,1.7C38.2,515.7,37.6,516,37,516z M59.5,490.8c1.1,3.6,2.1,6.3,3,8.1c0.9,1.8,2.1,2.6,3.5,2.6c1.5,0,2.5-0.4,3.1-1.1
	c0.5-0.8,0.8-1.9,0.8-3.2c0-1.2-0.3-2.4-1-3.5c-0.7-1.1-1.4-2.1-2.3-2.9H59.5z M69.6,483.4c0.7,0.7,1.3,1.5,1.9,2.3
	c0.6,0.8,0.8,1.6,0.8,2.4c0,0.8-0.4,1.4-1.1,1.9c-0.7,0.5-1.8,0.7-3.1,0.8c1.3,1.2,2.3,2.5,3.1,4c0.7,1.5,1.1,3,1.1,4.6
	c0,1.5-0.5,2.7-1.4,3.7c-1,1-2.2,1.5-3.7,1.4c-1.2,0-2.2-0.4-3.1-1.1c-0.9-0.7-1.6-1.7-2.3-2.9c-0.7-1.2-1.3-2.6-1.8-4.3
	c-0.6-1.7-1.1-3.5-1.8-5.4h-3.4c-1.4,0-2.6,0.3-3.5,1c-0.9,0.7-1.4,1.9-1.4,3.9c0,1.4,0.4,2.6,1.2,3.7c0.8,1,1.7,1.6,2.9,1.6
	c0.8,0,1.4,0.2,1.7,0.5c0.4,0.3,0.5,0.7,0.5,1.1c0,0.4-0.2,0.7-0.5,0.9c-0.3,0.2-0.7,0.3-1.3,0.3c-0.9,0-1.7-0.4-2.5-1.2
	c-0.8-0.8-1.7-2.2-2.7-4.1c-0.6-1.1-1-2-1.3-2.6c-0.3-0.7-0.4-1.5-0.4-2.2c0-1.6,0.5-2.9,1.4-4.1c0.9-1.2,2.3-1.8,4.1-1.8h13.3
	c1.8,0,2.9-0.4,3.1-1.2c0.3-0.8,0-1.8-0.9-3.1L69.6,483.4z M65,474.1c1.9,0,3.2-0.3,3.9-0.8c0.7-0.6,1-1.3,1-2.2
	c0-0.3,0-0.7-0.1-1.1c-0.1-0.5-0.2-0.9-0.4-1.3c-0.2-0.5-0.3-0.9-0.5-1.2c-0.2-0.4-0.3-0.6-0.5-0.8l0.7-0.4c1,0.9,1.8,1.9,2.3,3
	c0.6,1,0.8,2.2,0.8,3.4c0,1.4-0.4,2.6-1.2,3.4c-0.8,0.8-2,1.2-3.6,1.2H51.1v3.4h-0.9c-0.5-1.6-1.3-2.8-2.4-3.7
	c-1.1-0.8-2.7-1.4-4.8-1.8v-1h6v-7.8h2.1v7.8H65z M66.9,456.9c1.4,0,2.3-0.2,2.7-0.7c0.4-0.5,0.6-1.4,0.6-2.8h1.2c0,0.5,0,0.9,0,1.3
	c0,0.4,0,0.8,0,1.2c0,0.4,0,0.8,0,1.2c0,0.4,0,0.8,0,1.3c0,0.5,0,0.9,0,1.4c0,0.4,0,0.8,0,1.2c0,0.4,0,0.8,0,1.3c0,0.4,0,0.8,0,1.3
	h-1.2c0-1.4-0.2-2.4-0.6-2.8c-0.4-0.5-1.3-0.7-2.7-0.7H55c-0.9,0-1.6,0-2.1,0.1c-0.5,0.1-0.9,0.2-1.2,0.4c-0.3,0.2-0.5,0.5-0.6,0.9
	c-0.1,0.4-0.1,0.9-0.1,1.6h-1c-0.2-1-0.4-2-0.7-2.8c-0.3-0.9-0.8-1.7-1.5-2.4v-0.9c0.9,0.1,1.8,0.2,2.8,0.2c1,0,1.9,0,2.6,0H66.9z
	 M37,460.9c-0.7,0-1.2-0.2-1.7-0.7c-0.5-0.5-0.7-1.1-0.7-1.7s0.2-1.2,0.7-1.7c0.5-0.5,1.1-0.7,1.7-0.7c0.7,0,1.2,0.2,1.7,0.7
	c0.5,0.5,0.7,1.1,0.7,1.7s-0.2,1.2-0.7,1.7C38.2,460.7,37.6,460.9,37,460.9z M59.8,425.9c1.7,0,3.4,0.3,4.9,0.9
	c1.5,0.6,2.8,1.4,3.9,2.5c1.1,1,2,2.3,2.7,3.7c0.7,1.4,1,2.8,1,4.4c0,1.6-0.3,3.2-0.8,4.6c-0.6,1.5-1.4,2.8-2.4,3.9
	c-1,1.1-2.3,2-3.8,2.6c-1.5,0.7-3.2,1-5.1,1c-1.7,0-3.3-0.3-4.8-0.8c-1.5-0.6-2.9-1.4-4-2.4c-1.1-1-2-2.3-2.6-3.7
	c-0.7-1.4-1-2.9-1-4.6c0-1.7,0.3-3.3,0.9-4.7c0.6-1.5,1.4-2.8,2.4-3.9c1-1.1,2.3-1.9,3.9-2.5C56.3,426.2,58,425.9,59.8,425.9z
	 M60.4,429.5c-1.2,0-2.5,0.1-3.8,0.4c-1.4,0.3-2.6,0.8-3.7,1.4c-1.1,0.7-2.1,1.6-2.8,2.6c-0.7,1-1.1,2.3-1.1,3.9
	c0,1.5,0.3,2.7,1,3.8c0.7,1,1.5,1.8,2.5,2.4c1,0.6,2.2,1.1,3.5,1.4c1.2,0.3,2.5,0.4,3.7,0.4c1.1,0,2.4-0.1,3.7-0.4
	c1.3-0.3,2.5-0.8,3.7-1.4c1.1-0.7,2.1-1.5,2.9-2.5c0.7-1.1,1.1-2.4,1.1-4c0-1.5-0.3-2.7-1-3.7s-1.5-1.8-2.5-2.4
	c-1-0.7-2.1-1.1-3.4-1.4C62.7,429.6,61.5,429.5,60.4,429.5z M47.7,415.5c0.9,0.1,1.7,0.2,2.6,0.2c0.8,0,1.5,0,1.9,0
	c-1.1-1.5-2.1-3-3.1-4.7c-1-1.7-1.5-3.3-1.5-4.9c0-2,0.7-3.4,2.1-4.2c1.4-0.8,3.1-1.3,5.1-1.3h11.6c1.4,0,2.3-0.2,2.9-0.7
	c0.6-0.5,0.8-1.4,0.8-2.9h1.2c0,0.5,0,0.9,0,1.3c0,0.4,0,0.8,0,1.2c0,0.4,0,0.8,0,1.2c0,0.4,0,0.8,0,1.3c0,0.5,0,0.9,0,1.4
	c0,0.4,0,0.8,0,1.2c0,0.4,0,0.8,0,1.2c0,0.4,0,0.8,0,1.3h-1.2c0-1.4-0.3-2.3-0.8-2.8c-0.6-0.5-1.6-0.7-2.9-0.7H54.8
	c-1.6,0-2.8,0.4-3.5,1.1c-0.7,0.7-1.1,2-1.1,3.7c0,0.5,0.2,1.1,0.4,1.7c0.2,0.7,0.4,1.3,0.7,2c0.3,0.7,0.7,1.4,1.1,2
	c0.4,0.6,0.8,1.2,1.2,1.6h12.8c1.4,0,2.3-0.2,2.9-0.7c0.6-0.5,0.8-1.4,0.8-2.9h1.2c0,0.5,0,0.9,0,1.3c0,0.4,0,0.8,0,1.2
	c0,0.4,0,0.8,0,1.2c0,0.4,0,0.8,0,1.3c0,0.5,0,0.9,0,1.4c0,0.4,0,0.8,0,1.2c0,0.4,0,0.8,0,1.3c0,0.4,0,0.8,0,1.3h-1.2
	c0-1.4-0.3-2.4-0.8-2.8c-0.6-0.5-1.6-0.7-2.9-0.7H55c-0.9,0-1.6,0-2.1,0.1c-0.5,0-0.9,0.1-1.2,0.3c-0.3,0.2-0.5,0.5-0.6,0.9
	c-0.1,0.4-0.1,0.9-0.1,1.6h-1c-0.2-1-0.4-2-0.7-2.8c-0.3-0.9-0.8-1.7-1.5-2.4V415.5z"/>
</svg>
