<?xml version="1.0" encoding="utf-8"?>
<!-- Generator: Adobe Illustrator 26.0.3, SVG Export Plug-In . SVG Version: 6.00 Build 0)  -->
<svg version="1.1" id="Layer_1" xmlns="http://www.w3.org/2000/svg" xmlns:xlink="http://www.w3.org/1999/xlink" x="0px" y="0px"
	 viewBox="0 0 115.3 1146.4" style="enable-background:new 0 0 115.3 1146.4;" xml:space="preserve">
<style type="text/css">
	.st0{fill:#010202;}
</style>
<path class="st0" d="M63.1,762.8v-1.4c1-0.2,1.9-0.5,2.9-0.8s1.8-0.7,2.5-1.2c0.7-0.6,1.4-1.3,1.8-2.1c0.4-0.8,0.6-2,0.6-3.3
	c0-2.5-0.7-4.6-2-6.2c-1.3-1.6-3-2.4-5-2.4c-1.2,0-2.2,0.2-3.1,0.6c-0.9,0.4-1.7,1-2.4,1.7c-0.7,0.7-1.3,1.5-1.9,2.5
	c-0.6,0.9-1.1,1.9-1.7,2.9c-0.5,1-1.1,2.1-1.8,3.1c-0.7,1-1.4,1.9-2.2,2.8c-0.8,0.8-1.8,1.5-2.8,2c-1.1,0.5-2.3,0.7-3.6,0.7
	c-1.7,0-3.2-0.3-4.5-0.8c-1.3-0.6-2.3-1.3-3.1-2.3c-0.8-1-1.5-2.1-1.9-3.4c-0.4-1.3-0.6-2.7-0.6-4.2c0-0.5,0-1,0.1-1.4
	c0-0.5,0.1-0.9,0.1-1.4c0.1-0.5,0.1-0.9,0.2-1.4c0.1-0.5,0.1-1,0.2-1.6l6.7-0.8v1.3c-2,0.3-3.4,0.9-4.4,1.7c-1,0.8-1.5,2.2-1.5,4.3
	c0,2.5,0.7,4.4,2.1,5.7c1.3,1.2,2.9,1.9,4.8,1.9c1.2,0,2.2-0.3,3.2-0.8c0.9-0.5,1.7-1.2,2.5-2c0.7-0.8,1.4-1.8,2-2.8
	c0.6-1,1.1-2.1,1.7-3.2c0.6-1,1.1-2,1.8-3c0.6-1,1.3-1.8,2-2.6c0.8-0.7,1.7-1.4,2.7-1.8c1-0.5,2.1-0.7,3.4-0.7
	c1.8,0,3.3,0.4,4.6,1.1c1.3,0.7,2.4,1.6,3.3,2.7c0.9,1.1,1.5,2.4,2,3.9c0.4,1.4,0.6,2.8,0.6,4.2c0,1.3-0.1,2.6-0.4,3.9
	c-0.3,1.2-0.6,2.4-1.1,3.4L63.1,762.8z M57.2,735c0.5,0.1,1,0.1,1.6,0.1c0.6,0,1.3,0,2.1-0.1c2.5-0.2,4.6-0.9,6.2-2.3
	c1.7-1.4,2.5-3.2,2.5-5.6c0-1.6-0.3-3-0.9-4.2c-0.7-1.2-1.4-2.2-2.4-3l0.4-0.7c1.6,0.9,3,2.1,4.1,3.7c1.1,1.5,1.6,3.3,1.6,5.2
	c0,1.4-0.3,2.7-0.9,3.9c-0.6,1.2-1.4,2.2-2.4,3.1c-1,0.9-2.3,1.6-3.7,2.1c-1.4,0.5-2.9,0.7-4.6,0.7c-2.1,0-3.9-0.3-5.5-0.8
	c-1.6-0.5-3-1.2-4.1-2.1c-1.1-0.9-2-2-2.6-3.2c-0.6-1.2-0.9-2.6-0.9-4c0-1,0.2-2,0.5-2.9c0.3-1,0.8-1.9,1.5-2.6
	c0.7-0.8,1.5-1.4,2.6-1.9c1-0.5,2.2-0.7,3.6-0.8c0.4,0,0.7,0,0.9,0.1c0.2,0.1,0.3,0.3,0.3,0.7V735z M55.6,724.5c0-0.6-0.1-1-0.2-1.3
	c-0.2-0.3-0.5-0.4-1-0.4c-0.5,0-1.1,0.1-1.7,0.4c-0.6,0.2-1.1,0.6-1.6,1c-0.5,0.5-0.9,1-1.2,1.7c-0.3,0.7-0.5,1.4-0.5,2.2
	c0,1.9,0.6,3.4,1.8,4.5c1.1,1.1,2.6,1.8,4.5,2.2V724.5z M59.7,701.8c1.1,3.6,2.1,6.3,3,8.1c0.9,1.8,2.1,2.6,3.5,2.6
	c1.5,0,2.5-0.4,3.1-1.1c0.5-0.8,0.8-1.9,0.8-3.2c0-1.2-0.3-2.4-1-3.5c-0.7-1.1-1.4-2.1-2.3-2.9H59.7z M69.8,694.4
	c0.7,0.7,1.3,1.5,1.9,2.3c0.6,0.8,0.8,1.6,0.8,2.4c0,0.8-0.4,1.4-1.1,1.9c-0.7,0.5-1.8,0.7-3.1,0.8c1.3,1.2,2.3,2.5,3.1,4
	c0.7,1.5,1.1,3,1.1,4.6c0,1.5-0.5,2.7-1.4,3.7c-1,1-2.2,1.5-3.7,1.4c-1.2,0-2.2-0.4-3.1-1.1c-0.9-0.7-1.6-1.7-2.3-2.9
	c-0.7-1.2-1.3-2.6-1.8-4.3c-0.6-1.7-1.1-3.5-1.8-5.4h-3.4c-1.4,0-2.6,0.3-3.5,1c-0.9,0.7-1.4,1.9-1.4,3.9c0,1.4,0.4,2.6,1.2,3.7
	c0.8,1,1.7,1.6,2.9,1.6c0.8,0,1.4,0.2,1.7,0.5c0.4,0.3,0.5,0.7,0.5,1.1c0,0.4-0.2,0.7-0.5,0.9c-0.3,0.2-0.7,0.3-1.3,0.3
	c-0.9,0-1.7-0.4-2.5-1.2c-0.8-0.8-1.7-2.2-2.7-4.1c-0.6-1.1-1-2-1.3-2.6c-0.3-0.7-0.4-1.5-0.4-2.2c0-1.6,0.5-2.9,1.4-4.1
	c0.9-1.2,2.3-1.8,4.1-1.8h13.3c1.8,0,2.9-0.4,3.1-1.2c0.3-0.8,0-1.8-0.9-3.1L69.8,694.4z M64.7,689.2c0.7-0.1,1.4-0.2,2.1-0.4
	c0.7-0.2,1.4-0.6,2.1-1c0.6-0.4,1.1-1,1.5-1.7c0.4-0.7,0.6-1.6,0.6-2.7c0-1.9-0.4-3.1-1.2-3.8c-0.8-0.7-1.7-1.1-2.7-1.1
	c-0.7,0-1.4,0.2-1.9,0.5c-0.6,0.3-1,0.7-1.5,1.2c-0.4,0.5-0.8,1.1-1.1,1.7c-0.4,0.7-0.7,1.3-1.1,2c-0.9,1.7-1.9,3.1-3,4.3
	c-1.1,1.2-2.5,1.8-4.2,1.8c-0.8,0-1.7-0.2-2.4-0.5c-0.8-0.4-1.5-0.9-2.1-1.5c-0.6-0.7-1.1-1.4-1.4-2.3c-0.4-0.9-0.6-2-0.6-3.2
	c0-0.8,0.1-1.6,0.3-2.6c0.2-1,0.5-1.9,1-2.8l5.4-0.4v1c-1.7,0.2-2.9,0.7-3.8,1.6c-0.9,0.8-1.4,2.1-1.4,3.7c0,1.3,0.3,2.4,1,3.3
	c0.6,0.9,1.5,1.4,2.5,1.4c0.8,0,1.5-0.2,2.1-0.5c0.6-0.4,1.1-0.8,1.5-1.4c0.4-0.6,0.8-1.3,1.2-2c0.4-0.7,0.7-1.5,1-2.3
	c0.4-0.7,0.7-1.5,1.1-2.2c0.4-0.7,0.9-1.4,1.4-1.9c0.5-0.5,1.1-0.9,1.9-1.3c0.7-0.4,1.5-0.5,2.4-0.5c0.9,0,1.7,0.2,2.6,0.5
	c0.8,0.3,1.6,0.8,2.2,1.5c0.7,0.7,1.2,1.5,1.6,2.6c0.4,1,0.6,2.3,0.6,3.7c0,1-0.1,2-0.4,3.1c-0.3,1.1-0.7,2.1-1.2,2.8l-6.2,0.6
	V689.2z M60,647.5c1.7,0,3.4,0.3,4.9,0.9c1.5,0.6,2.8,1.4,3.9,2.5c1.1,1,2,2.3,2.7,3.7c0.7,1.4,1,2.8,1,4.4c0,1.6-0.3,3.2-0.8,4.6
	c-0.6,1.5-1.4,2.8-2.4,3.9c-1,1.1-2.3,2-3.8,2.6c-1.5,0.7-3.2,1-5.1,1c-1.7,0-3.3-0.3-4.8-0.8c-1.5-0.6-2.9-1.4-4-2.4
	c-1.1-1-2-2.3-2.6-3.7c-0.7-1.4-1-2.9-1-4.6c0-1.7,0.3-3.3,0.9-4.7c0.6-1.5,1.4-2.8,2.4-3.9c1-1.1,2.3-1.9,3.9-2.5
	C56.5,647.8,58.2,647.5,60,647.5z M60.6,651.1c-1.2,0-2.5,0.1-3.8,0.4c-1.4,0.3-2.6,0.8-3.7,1.4c-1.1,0.7-2.1,1.6-2.8,2.6
	c-0.7,1-1.1,2.3-1.1,3.9c0,1.5,0.3,2.7,1,3.8c0.7,1,1.5,1.8,2.5,2.4c1,0.6,2.2,1.1,3.5,1.4c1.2,0.3,2.5,0.4,3.7,0.4
	c1.1,0,2.4-0.1,3.7-0.4c1.3-0.3,2.5-0.8,3.7-1.4c1.1-0.7,2.1-1.5,2.9-2.5c0.7-1.1,1.1-2.4,1.1-4c0-1.5-0.3-2.7-1-3.7
	c-0.7-1-1.5-1.8-2.5-2.4c-1-0.7-2.1-1.1-3.4-1.4C63,651.3,61.7,651.1,60.6,651.1z M47.9,637.1c0.9,0.1,1.7,0.2,2.6,0.2
	c0.8,0,1.5,0,1.9,0c-1.1-1.5-2.1-3-3.1-4.7c-1-1.7-1.5-3.3-1.5-4.9c0-2,0.7-3.4,2.1-4.2c1.4-0.8,3.1-1.3,5.1-1.3h11.6
	c1.4,0,2.3-0.2,2.9-0.7c0.6-0.5,0.8-1.4,0.8-2.9h1.2c0,0.5,0,0.9,0,1.3c0,0.4,0,0.8,0,1.2c0,0.4,0,0.8,0,1.2c0,0.4,0,0.8,0,1.3
	c0,0.5,0,0.9,0,1.4c0,0.4,0,0.8,0,1.2c0,0.4,0,0.8,0,1.2c0,0.4,0,0.8,0,1.3h-1.2c0-1.4-0.3-2.3-0.8-2.8c-0.6-0.5-1.6-0.7-2.9-0.7
	H55.1c-1.6,0-2.8,0.4-3.5,1.1c-0.7,0.7-1.1,2-1.1,3.7c0,0.5,0.2,1.1,0.4,1.7c0.2,0.7,0.4,1.3,0.7,2c0.3,0.7,0.7,1.3,1.1,2
	c0.4,0.6,0.8,1.2,1.2,1.6h12.8c1.4,0,2.3-0.2,2.9-0.7c0.6-0.5,0.8-1.4,0.8-2.9h1.2c0,0.5,0,0.9,0,1.3c0,0.4,0,0.8,0,1.2
	c0,0.4,0,0.8,0,1.2c0,0.4,0,0.8,0,1.3c0,0.5,0,0.9,0,1.4c0,0.4,0,0.8,0,1.2c0,0.4,0,0.8,0,1.3c0,0.4,0,0.8,0,1.3h-1.2
	c0-1.4-0.3-2.4-0.8-2.8c-0.6-0.5-1.6-0.7-2.9-0.7H55.2c-0.9,0-1.6,0-2.1,0.1c-0.5,0-0.9,0.1-1.2,0.3c-0.3,0.2-0.5,0.5-0.6,0.9
	c-0.1,0.4-0.1,0.9-0.1,1.6h-1c-0.2-1-0.4-2-0.7-2.8c-0.3-0.9-0.8-1.7-1.5-2.4V637.1z M64.7,613.8c0.7-0.1,1.4-0.2,2.1-0.4
	c0.7-0.2,1.4-0.6,2.1-1c0.6-0.4,1.1-1,1.5-1.7c0.4-0.7,0.6-1.6,0.6-2.7c0-1.9-0.4-3.1-1.2-3.8c-0.8-0.7-1.7-1.1-2.7-1.1
	c-0.7,0-1.4,0.2-1.9,0.5c-0.6,0.3-1,0.7-1.5,1.2c-0.4,0.5-0.8,1.1-1.1,1.7c-0.4,0.7-0.7,1.3-1.1,2c-0.9,1.7-1.9,3.1-3,4.3
	c-1.1,1.2-2.5,1.8-4.2,1.8c-0.8,0-1.7-0.2-2.4-0.5c-0.8-0.4-1.5-0.9-2.1-1.5c-0.6-0.7-1.1-1.4-1.4-2.3c-0.4-0.9-0.6-2-0.6-3.2
	c0-0.8,0.1-1.6,0.3-2.6c0.2-1,0.5-1.9,1-2.8l5.4-0.4v1c-1.7,0.2-2.9,0.7-3.8,1.6c-0.9,0.8-1.4,2.1-1.4,3.7c0,1.3,0.3,2.4,1,3.3
	c0.6,0.9,1.5,1.4,2.5,1.4c0.8,0,1.5-0.2,2.1-0.5c0.6-0.4,1.1-0.8,1.5-1.4c0.4-0.6,0.8-1.3,1.2-2c0.4-0.7,0.7-1.5,1-2.3
	c0.4-0.7,0.7-1.5,1.1-2.2c0.4-0.7,0.9-1.4,1.4-1.9c0.5-0.5,1.1-0.9,1.9-1.3c0.7-0.4,1.5-0.5,2.4-0.5c0.9,0,1.7,0.2,2.6,0.5
	c0.8,0.3,1.6,0.8,2.2,1.5c0.7,0.7,1.2,1.5,1.6,2.6c0.4,1,0.6,2.3,0.6,3.7c0,1-0.1,2-0.4,3.1s-0.7,2.1-1.2,2.8l-6.2,0.6V613.8z
	 M60,557.1c1.7,0,3.4,0.3,4.9,0.9c1.5,0.6,2.8,1.4,3.9,2.5c1.1,1,2,2.3,2.7,3.7c0.7,1.4,1,2.8,1,4.4c0,1.6-0.3,3.2-0.8,4.6
	c-0.6,1.5-1.4,2.8-2.4,3.9c-1,1.1-2.3,2-3.8,2.6c-1.5,0.7-3.2,1-5.1,1c-1.7,0-3.3-0.3-4.8-0.8c-1.5-0.6-2.9-1.4-4-2.4
	c-1.1-1-2-2.3-2.6-3.7c-0.7-1.4-1-2.9-1-4.6c0-1.7,0.3-3.3,0.9-4.7c0.6-1.5,1.4-2.8,2.4-3.9c1-1.1,2.3-1.9,3.9-2.5
	C56.5,557.4,58.2,557.1,60,557.1z M60.6,560.7c-1.2,0-2.5,0.1-3.8,0.4c-1.4,0.3-2.6,0.8-3.7,1.4c-1.1,0.7-2.1,1.6-2.8,2.6
	c-0.7,1-1.1,2.3-1.1,3.9c0,1.5,0.3,2.7,1,3.8c0.7,1,1.5,1.8,2.5,2.4c1,0.6,2.2,1.1,3.5,1.4c1.2,0.3,2.5,0.4,3.7,0.4
	c1.1,0,2.4-0.1,3.7-0.4c1.3-0.3,2.5-0.8,3.7-1.4c1.1-0.7,2.1-1.5,2.9-2.5c0.7-1.1,1.1-2.4,1.1-4c0-1.5-0.3-2.7-1-3.7
	c-0.7-1-1.5-1.8-2.5-2.4c-1-0.7-2.1-1.1-3.4-1.4C63,560.8,61.7,560.7,60.6,560.7z M49.2,539.2h2.1v6.6h15.8c1.4,0,2.3-0.4,2.7-1.1
	c0.4-0.7,0.6-2,0.6-3.7h1.2c0,0.8,0,1.8,0,2.9c0,1,0,2.1,0,3.2c0,1.1,0,2.1,0,3.2c0,1,0,2,0,2.7h-1.2c0-1.5-0.3-2.5-0.8-3.2
	c-0.5-0.7-1.4-1-2.6-1H51.3v3.7h-1c-0.1-0.8-0.4-1.7-0.8-2.5c-0.5-0.8-1.3-1.2-2.4-1.2c-0.9,0-1.9-0.1-3-0.2
	c-1.1-0.2-2.2-0.4-3.3-0.8c-1.1-0.3-2.1-0.7-3.1-1.2c-1-0.5-1.8-1.1-2.5-1.8c-1.3-1.3-2.2-2.5-2.7-3.6c-0.5-1.1-0.8-1.9-0.8-2.3
	c0-0.7,0.2-1.3,0.5-1.8c0.3-0.4,0.8-0.6,1.5-0.6c0.6,0,1,0.2,1.3,0.7c0.3,0.5,0.4,0.9,0.4,1.2c0,0.3,0,0.5,0,0.6
	c-0.1,0.2-0.1,0.4-0.2,0.6c-0.1,0.2-0.1,0.5-0.2,0.8c-0.1,0.3-0.1,0.7-0.1,1.3c0,0.7,0.2,1.4,0.6,1.9c0.4,0.5,0.9,0.9,1.6,1.3
	c0.6,0.3,1.3,0.6,2,0.7c0.7,0.1,1.3,0.2,1.8,0.2h8.2V539.2z M65.3,515.9c1.9,0,3.2-0.3,3.9-0.8c0.7-0.6,1-1.3,1-2.2
	c0-0.3,0-0.7-0.1-1.1c-0.1-0.5-0.2-0.9-0.4-1.3c-0.2-0.5-0.3-0.9-0.5-1.2c-0.2-0.4-0.3-0.6-0.5-0.8l0.7-0.4c1,0.9,1.8,1.9,2.3,3
	c0.6,1,0.8,2.2,0.8,3.4c0,1.4-0.4,2.6-1.2,3.4c-0.8,0.8-2,1.2-3.6,1.2H51.3v3.4h-0.9c-0.5-1.6-1.3-2.8-2.4-3.7
	c-1.1-0.8-2.7-1.4-4.8-1.8v-1h6v-7.8h2.1v7.8H65.3z M39.4,502.1c-0.8,0-1.5,0-2,0.1c-0.5,0.1-0.9,0.2-1.2,0.4
	c-0.3,0.2-0.4,0.6-0.5,1c-0.1,0.4-0.1,1-0.1,1.7h-1c-0.2-1-0.5-2.1-0.9-3c-0.4-1-1-1.9-1.7-2.6v-0.9c0.9,0.1,1.8,0.2,2.8,0.2
	c1,0,1.9,0,2.6,0h15.6c-0.6-0.5-1.1-1-1.8-1.7c-0.6-0.7-1.2-1.3-1.8-2.1c-0.5-0.7-1-1.5-1.3-2.3c-0.4-0.8-0.5-1.7-0.5-2.6
	c0-2,0.7-3.6,2.2-4.7c1.5-1.1,3.4-1.7,5.6-1.7h10.9c0.7,0,1.4,0,1.9,0c0.5-0.1,0.9-0.2,1.2-0.4c0.3-0.2,0.5-0.6,0.6-1.1
	c0.1-0.5,0.1-1.2,0.1-2h1.2c0,0.5,0,0.9,0,1.3c0,0.4,0,0.8,0,1.2c0,0.4,0,0.8,0,1.2c0,0.4,0,0.9,0,1.4s0,0.9,0,1.4
	c0,0.4,0,0.8,0,1.2c0,0.4,0,0.8,0,1.2c0,0.4,0,0.8,0,1.3h-1.2c0-0.7,0-1.3-0.1-1.8c-0.1-0.5-0.2-0.9-0.5-1.1
	c-0.3-0.3-0.6-0.4-1.1-0.5c-0.5-0.1-1.2-0.1-2.1-0.1h-7.9c-1.6,0-2.9,0.1-3.9,0.3c-1,0.2-1.9,0.5-2.5,0.9c-0.6,0.4-1,0.9-1.3,1.6
	c-0.3,0.7-0.4,1.5-0.4,2.4c0,1.2,0.5,2.5,1.4,3.8c0.9,1.3,1.9,2.3,2.9,3.1h11.7c1.5,0,2.6-0.2,3.1-0.6c0.5-0.4,0.7-1.4,0.7-3h1.2
	c0,0.5,0,0.9,0,1.3c0,0.4,0,0.8,0,1.2c0,0.4,0,0.8,0,1.2c0,0.4,0,0.8,0,1.3c0,0.5,0,0.9,0,1.4c0,0.4,0,0.8,0,1.2c0,0.4,0,0.8,0,1.3
	c0,0.4,0,0.8,0,1.3h-1.2c0-1.5-0.2-2.4-0.7-2.8c-0.5-0.4-1.5-0.6-3.1-0.6H39.4z M57.2,474c0.5,0.1,1,0.1,1.6,0.1
	c0.6,0,1.3,0,2.1-0.1c2.5-0.2,4.6-0.9,6.2-2.3c1.7-1.4,2.5-3.2,2.5-5.6c0-1.6-0.3-3-0.9-4.2c-0.7-1.2-1.4-2.2-2.4-3l0.4-0.7
	c1.6,0.9,3,2.1,4.1,3.7c1.1,1.5,1.6,3.3,1.6,5.2c0,1.4-0.3,2.7-0.9,3.9c-0.6,1.2-1.4,2.2-2.4,3.1c-1,0.9-2.3,1.6-3.7,2.1
	c-1.4,0.5-2.9,0.7-4.6,0.7c-2.1,0-3.9-0.3-5.5-0.8c-1.6-0.5-3-1.2-4.1-2.1c-1.1-0.9-2-2-2.6-3.2c-0.6-1.2-0.9-2.6-0.9-4
	c0-1,0.2-2,0.5-2.9c0.3-1,0.8-1.9,1.5-2.6c0.7-0.8,1.5-1.4,2.6-1.9c1-0.5,2.2-0.7,3.6-0.8c0.4,0,0.7,0,0.9,0.1
	c0.2,0.1,0.3,0.3,0.3,0.7V474z M55.6,463.5c0-0.6-0.1-1-0.2-1.3c-0.2-0.3-0.5-0.4-1-0.4c-0.5,0-1.1,0.1-1.7,0.4
	c-0.6,0.2-1.1,0.6-1.6,1c-0.5,0.5-0.9,1-1.2,1.7c-0.3,0.7-0.5,1.4-0.5,2.2c0,1.9,0.6,3.4,1.8,4.5c1.1,1.1,2.6,1.8,4.5,2.2V463.5z
	 M70.1,430.2c-0.9,0.4-2.3,0.9-4,1.6c-1.7,0.7-3.4,1.4-5.2,2.1c-1.8,0.7-3.5,1.4-5.1,2.1c-1.6,0.6-2.8,1.1-3.6,1.3
	c-0.8,0.3-1.4,0.7-1.8,1.2c-0.4,0.5-0.6,1.3-0.6,2.2h-1.3c0.1-0.5,0.1-1.2,0.1-2.1c0-0.9,0-1.9,0-2.9c0-1,0-1.9,0-2.7
	c0-0.9-0.1-1.5-0.1-1.9h1.4c0.1,1.3,0.3,2.1,0.7,2.5c0.4,0.4,1,0.5,2,0.2l13.6-5.3l-13.3-5.6c-1-0.4-1.8-0.4-2.2,0
	c-0.5,0.4-0.8,1.1-0.8,2.1h-1.3c0.1-0.4,0.1-0.9,0.1-1.7c0-0.7,0-1.5,0-2.2c0-0.8,0-1.5,0-2.2c0-0.7-0.1-1.2-0.1-1.6h1.3
	c0,1.1,0.3,2,0.8,2.5c0.5,0.5,1.4,1,2.6,1.5L81,433.4c1,0.4,1.6,1,2,1.8c0.3,0.7,0.5,1.5,0.5,2.2c0,0.6-0.2,1.1-0.5,1.6
	c-0.3,0.5-0.8,0.7-1.6,0.7c-0.7,0-1.2-0.3-1.5-0.8c-0.3-0.5-0.4-1-0.3-1.5c0-0.1,0-0.3,0.1-0.4c0.1-0.2,0.2-0.3,0.3-0.5
	c0.1-0.2,0.1-0.3,0.2-0.5c0.1-0.2,0.2-0.3,0.2-0.4c0-0.3-0.1-0.6-0.2-0.8c-0.1-0.2-0.3-0.4-0.6-0.6L70.1,430.2z M57.2,411.6
	c0.5,0.1,1,0.1,1.6,0.1c0.6,0,1.3,0,2.1-0.1c2.5-0.2,4.6-0.9,6.2-2.3c1.7-1.4,2.5-3.2,2.5-5.6c0-1.6-0.3-3-0.9-4.2
	c-0.7-1.2-1.4-2.2-2.4-3l0.4-0.7c1.6,0.9,3,2.1,4.1,3.7c1.1,1.5,1.6,3.3,1.6,5.2c0,1.4-0.3,2.7-0.9,3.9c-0.6,1.2-1.4,2.2-2.4,3.1
	c-1,0.9-2.3,1.6-3.7,2.1c-1.4,0.5-2.9,0.7-4.6,0.7c-2.1,0-3.9-0.3-5.5-0.8c-1.6-0.5-3-1.2-4.1-2.1c-1.1-0.9-2-2-2.6-3.2
	c-0.6-1.2-0.9-2.6-0.9-4c0-1,0.2-2,0.5-2.9c0.3-1,0.8-1.9,1.5-2.6c0.7-0.8,1.5-1.4,2.6-1.9c1-0.5,2.2-0.7,3.6-0.8
	c0.4,0,0.7,0,0.9,0.1c0.2,0.1,0.3,0.3,0.3,0.7V411.6z M55.6,401.2c0-0.6-0.1-1-0.2-1.3c-0.2-0.3-0.5-0.4-1-0.4
	c-0.5,0-1.1,0.1-1.7,0.4c-0.6,0.2-1.1,0.6-1.6,1c-0.5,0.5-0.9,1-1.2,1.7c-0.3,0.7-0.5,1.4-0.5,2.2c0,1.9,0.6,3.4,1.8,4.5
	c1.1,1.1,2.6,1.8,4.5,2.2V401.2z M59.7,378.4c1.1,3.6,2.1,6.3,3,8.1c0.9,1.8,2.1,2.6,3.5,2.6c1.5,0,2.5-0.4,3.1-1.1
	c0.5-0.8,0.8-1.9,0.8-3.2c0-1.2-0.3-2.4-1-3.5c-0.7-1.1-1.4-2.1-2.3-2.9H59.7z M69.8,371c0.7,0.7,1.3,1.5,1.9,2.3
	c0.6,0.8,0.8,1.6,0.8,2.4c0,0.8-0.4,1.4-1.1,1.9c-0.7,0.5-1.8,0.7-3.1,0.8c1.3,1.2,2.3,2.5,3.1,4c0.7,1.5,1.1,3,1.1,4.6
	c0,1.5-0.5,2.7-1.4,3.7c-1,1-2.2,1.5-3.7,1.4c-1.2,0-2.2-0.4-3.1-1.1c-0.9-0.7-1.6-1.7-2.3-2.9c-0.7-1.2-1.3-2.6-1.8-4.3
	c-0.6-1.7-1.1-3.5-1.8-5.4h-3.4c-1.4,0-2.6,0.3-3.5,1c-0.9,0.7-1.4,1.9-1.4,3.9c0,1.4,0.4,2.6,1.2,3.7c0.8,1,1.7,1.6,2.9,1.6
	c0.8,0,1.4,0.2,1.7,0.5c0.4,0.3,0.5,0.7,0.5,1.1c0,0.4-0.2,0.7-0.5,0.9c-0.3,0.2-0.7,0.3-1.3,0.3c-0.9,0-1.7-0.4-2.5-1.2
	c-0.8-0.8-1.7-2.2-2.7-4.1c-0.6-1.1-1-2-1.3-2.6c-0.3-0.7-0.4-1.5-0.4-2.2c0-1.6,0.5-2.9,1.4-4.1c0.9-1.2,2.3-1.8,4.1-1.8h13.3
	c1.8,0,2.9-0.4,3.1-1.2c0.3-0.8,0-1.8-0.9-3.1L69.8,371z M53.2,361c-0.7-0.5-1.3-1-1.9-1.7c-0.7-0.6-1.2-1.2-1.8-1.9
	c-0.5-0.7-0.9-1.3-1.2-1.9c-0.3-0.6-0.5-1.2-0.5-1.8c0-0.8,0.2-1.5,0.6-2.1c0.4-0.6,0.9-0.9,1.7-0.9c0.8,0,1.4,0.2,1.8,0.7
	c0.4,0.5,0.6,0.9,0.6,1.3c0,0.4,0,0.7-0.1,0.9c-0.1,0.2-0.3,0.5-0.4,0.7c-0.2,0.2-0.3,0.5-0.4,0.8c-0.1,0.3-0.2,0.6-0.2,1.1
	c0,0.3,0.1,0.7,0.4,1.2c0.3,0.5,0.7,1,1.1,1.5c0.5,0.5,1,1,1.6,1.3c0.6,0.4,1.2,0.5,1.8,0.5h10.4c0.8,0,1.4,0,2-0.1
	c0.5-0.1,0.9-0.4,1.1-0.8c0.3-0.4,0.4-0.9,0.5-1.7c0.1-0.7,0.1-1.7,0.1-2.9h1.2c0,0.7,0,1.7,0,2.8c0,1.1,0,2.2,0,3.4
	c0,1.2,0,2.3,0,3.4c0,1.1,0,2,0,2.8h-1.2c0-1.7-0.2-2.7-0.6-3.2c-0.4-0.5-1.5-0.7-3.1-0.7H55.2c-0.9,0-1.6,0-2.1,0.1
	c-0.5,0.1-0.9,0.2-1.2,0.4c-0.3,0.2-0.5,0.5-0.6,0.9c-0.1,0.4-0.1,0.9-0.1,1.6h-1c-0.2-1-0.4-2-0.7-2.8c-0.3-0.9-0.8-1.7-1.5-2.4
	v-0.9c0.9,0.1,1.8,0.2,2.7,0.2C51.6,361,52.4,361,53.2,361z"/>
</svg>
