<svg width="90" height="30" viewBox="0 0 90 30" fill="none" xmlns="http://www.w3.org/2000/svg">
<rect x="0.5" y="0.5" width="89" height="29" rx="14.5" fill="#5EAD79" stroke="black"/>
<path d="M28.92 20L28.29 18.166L24.482 18.166L23.852 20L21.766 20L25.224 10.2L27.562 10.2L31.006 20L28.92 20ZM25 16.654L27.786 16.654L26.386 12.58L25 16.654ZM32.3791 10.228L36.3411 10.228C37.3398 10.228 38.1238 10.4707 38.6931 10.956C39.2718 11.4413 39.5611 12.0573 39.5611 12.804C39.5611 13.896 38.9264 14.6287 37.6571 15.002C38.3011 15.0953 38.8144 15.3753 39.1971 15.842C39.5891 16.2993 39.7851 16.8313 39.7851 17.438C39.7851 18.2033 39.4958 18.824 38.9171 19.3C38.3384 19.7667 37.5544 20 36.5651 20L32.3791 20L32.3791 10.228ZM34.3531 11.74L34.3531 14.274L36.1311 14.274C36.5698 14.274 36.9151 14.1667 37.1671 13.952C37.4284 13.728 37.5591 13.4153 37.5591 13.014C37.5591 12.6127 37.4284 12.3 37.1671 12.076C36.9151 11.852 36.5698 11.74 36.1311 11.74L34.3531 11.74ZM34.3531 18.488L36.3411 18.488C36.7798 18.488 37.1298 18.3713 37.3911 18.138C37.6618 17.8953 37.7971 17.564 37.7971 17.144C37.7971 16.724 37.6618 16.3927 37.3911 16.15C37.1204 15.9073 36.7658 15.786 36.3271 15.786L34.3531 15.786L34.3531 18.488ZM48.0926 17.424C48.6432 16.836 48.9186 16.0567 48.9186 15.086C48.9186 14.1153 48.6432 13.3407 48.0926 12.762C47.5419 12.1833 46.8232 11.894 45.9366 11.894C45.0499 11.894 44.3266 12.188 43.7666 12.776C43.2159 13.3547 42.9406 14.1293 42.9406 15.1C42.9406 16.0613 43.2159 16.836 43.7666 17.424C44.3266 18.0027 45.0499 18.292 45.9366 18.292C46.8232 18.292 47.5419 18.0027 48.0926 17.424ZM45.9366 20.098C44.5272 20.098 43.3419 19.6267 42.3806 18.684C41.4192 17.7413 40.9386 16.5467 40.9386 15.1C40.9386 13.644 41.4192 12.4447 42.3806 11.502C43.3512 10.5593 44.5366 10.088 45.9366 10.088C47.3459 10.088 48.5312 10.5593 49.4926 11.502C50.4539 12.4447 50.9346 13.644 50.9346 15.1C50.9346 16.5467 50.4539 17.7413 49.4926 18.684C48.5312 19.6267 47.3459 20.098 45.9366 20.098ZM52.4624 16.248L52.4624 10.228L54.4364 10.228L54.4364 16.248C54.4364 16.92 54.6044 17.4287 54.9404 17.774C55.2858 18.1193 55.7758 18.292 56.4104 18.292C57.0451 18.292 57.5351 18.1193 57.8804 17.774C58.2258 17.4287 58.3984 16.92 58.3984 16.248L58.3984 10.228L60.3584 10.228L60.3584 16.248C60.3584 17.48 59.9711 18.432 59.1964 19.104C58.4218 19.7667 57.4791 20.098 56.3684 20.098C55.2578 20.098 54.3291 19.7667 53.5824 19.104C52.8358 18.4413 52.4624 17.4893 52.4624 16.248ZM61.8422 11.74L61.8422 10.228L69.0802 10.228L69.0802 11.74L66.4342 11.74L66.4342 20L64.4742 20L64.4742 11.74L61.8422 11.74Z" fill="black"/>
</svg>
