<svg width="32" height="84" viewBox="0 0 32 84" fill="none" xmlns="http://www.w3.org/2000/svg">
<path d="M25 83V1H24.92C18.576 1 12.4919 3.54079 8.00598 8.06343C3.52011 12.5861 1 18.7201 1 25.1161V58.8839C1 65.2799 3.52011 71.4139 8.00598 75.9366C12.4919 80.4592 18.576 83 24.92 83H25Z" fill="#FADBD2" stroke="black"/>
<path d="M11.505 63.505C11.2317 63.7784 11.2317 64.2216 11.505 64.495L15.9598 68.9497C16.2332 69.2231 16.6764 69.2231 16.9498 68.9497C17.2231 68.6764 17.2231 68.2332 16.9498 67.9598L12.99 64L16.9498 60.0402C17.2231 59.7668 17.2231 59.3236 16.9498 59.0503C16.6764 58.7769 16.2332 58.7769 15.9598 59.0503L11.505 63.505ZM13 63.3L12 63.3L12 64.7L13 64.7L13 63.3Z" fill="black"/>
<path d="M19 55.3556L11.7273 55.3556L11.7273 50.9664L12.5085 50.9664L12.5085 54.475L14.9659 54.475L14.9659 51.1937L15.7472 51.1937L15.7472 54.475L18.2187 54.475L18.2187 50.9096L19 50.9096L19 55.3556ZM11.7273 48.9529L14.7528 47.0779L14.7528 47.0211L11.7273 45.1461L11.7273 44.1092L15.3636 46.3961L19 44.1092L19 45.1461L16.0312 47.0211L16.0312 47.0779L19 48.9529L19 49.9899L15.3636 47.6461L11.7273 49.9899L11.7273 48.9529ZM19 42.9631L11.7273 42.9631L11.7273 40.5057C11.7273 39.9351 11.8303 39.4687 12.0362 39.1065C12.2398 38.742 12.5156 38.4721 12.8636 38.2969C13.2116 38.1217 13.5999 38.0341 14.0284 38.0341C14.4569 38.0341 14.8464 38.1217 15.1967 38.2969C15.5471 38.4697 15.8265 38.7372 16.0348 39.0994C16.2408 39.4616 16.3437 39.9257 16.3437 40.4915L16.3437 42.2528L15.5625 42.2528L15.5625 40.5199C15.5625 40.1293 15.495 39.8156 15.3601 39.5788C15.2251 39.3421 15.0428 39.1705 14.8132 39.0639C14.5812 38.955 14.3196 38.9006 14.0284 38.9006C13.7372 38.9006 13.4768 38.955 13.2472 39.0639C13.0175 39.1705 12.8376 39.3433 12.7074 39.5824C12.5748 39.8215 12.5085 40.1387 12.5085 40.5341L12.5085 42.0824L19 42.0824L19 42.9631ZM19 37.0593L19 37.9826L11.7273 35.3121L11.7273 34.4031L19 31.7326L19 32.6559L12.8778 34.8292L12.8778 34.886L19 37.0593ZM16.1591 36.7184L16.1591 32.9968L16.9403 32.9968L16.9403 36.7184L16.1591 36.7184ZM11.7273 24.8327L19 24.8327L19 25.685L13.2898 29.6481L13.2898 29.7191L19 29.7191L19 30.5998L11.7273 30.5998L11.7273 29.7475L17.4517 25.7702L17.4517 25.6992L11.7273 25.6992L11.7273 24.8327ZM19 20.8262L19 23.0705L11.7273 23.0705L11.7273 20.7267C11.7273 20.0212 11.8729 19.4176 12.1641 18.9157C12.4529 18.4138 12.8684 18.0291 13.4105 17.7615C13.9503 17.494 14.5966 17.3603 15.3494 17.3603C16.107 17.3603 16.7592 17.4952 17.3061 17.7651C17.8506 18.035 18.2696 18.428 18.5632 18.9441C18.8544 19.4602 19 20.0875 19 20.8262ZM18.2187 22.1898L18.2187 20.883C18.2187 20.2817 18.1027 19.7833 17.8707 19.388C17.6387 18.9926 17.3085 18.6979 16.88 18.5037C16.4515 18.3096 15.9413 18.2125 15.3494 18.2125C14.7623 18.2125 14.2569 18.3084 13.8331 18.5002C13.407 18.6919 13.0803 18.9784 12.853 19.3596C12.6233 19.7407 12.5085 20.2154 12.5085 20.7836L12.5085 22.1898L18.2187 22.1898Z" fill="black"/>
</svg>
