<svg width="41" height="71" viewBox="0 0 41 71" fill="none" xmlns="http://www.w3.org/2000/svg">
<path d="M0.93934 33.9393C0.353553 34.5251 0.353553 35.4749 0.93934 36.0607L10.4853 45.6066C11.0711 46.1924 12.0208 46.1924 12.6066 45.6066C13.1924 45.0208 13.1924 44.0711 12.6066 43.4853L4.12132 35L12.6066 26.5147C13.1924 25.9289 13.1924 24.9792 12.6066 24.3934C12.0208 23.8076 11.0711 23.8076 10.4853 24.3934L0.93934 33.9393ZM3 33.5L2 33.5L2 36.5L3 36.5L3 33.5Z" fill="black"/>
<path d="M21.763 48.6123L22.411 48.6123L22.411 51.0963L24.535 51.0963L24.535 48.8823L25.174 48.8823L25.174 51.0963L27.352 51.0963L27.352 48.6123L28 48.6123L28 51.9153L21.763 51.9153L21.763 48.6123ZM21.763 42.8264L24.886 44.7524L28 42.8354L28 43.7354L25.543 45.2564L28 46.6874L28 47.5964L24.877 45.6704L21.763 47.5964L21.763 46.6874L24.229 45.1664L21.763 43.7354L21.763 42.8264ZM21.763 39.6862C21.763 38.9842 21.934 38.4502 22.276 38.0842C22.618 37.7122 23.056 37.5262 23.59 37.5262C24.124 37.5262 24.565 37.7062 24.913 38.0662C25.255 38.4202 25.426 38.9602 25.426 39.6862L25.426 40.8922L28 40.8922L28 41.7112L21.763 41.7112L21.763 39.6862ZM24.778 40.8922L24.778 39.6862C24.778 39.2362 24.676 38.9032 24.472 38.6872C24.262 38.4652 23.971 38.3542 23.599 38.3542C22.813 38.3542 22.42 38.7982 22.42 39.6862L22.42 40.8922L24.778 40.8922ZM28 32.2061L26.632 32.6921L26.632 35.4641L28 35.9501L28 36.7871L21.763 34.5191L21.763 33.6191L28 31.3601L28 32.2061ZM25.984 35.2301L25.984 32.9261L22.762 34.0781L25.984 35.2301ZM21.763 26.1724L21.763 25.3534L28 25.3534L28 26.1724L23.05 29.4664L28 29.4664L28 30.2854L21.763 30.2854L21.763 29.4664L26.713 26.1724L21.763 26.1724ZM27.37 23.1823L27.37 22.0303C27.37 21.2443 27.154 20.6443 26.722 20.2303C26.29 19.8163 25.687 19.6093 24.913 19.6093C24.139 19.6093 23.536 19.8163 23.104 20.2303C22.672 20.6443 22.456 21.2443 22.456 22.0303L22.456 23.1823L27.37 23.1823ZM21.763 22.0303C21.763 21.0223 22.045 20.2273 22.609 19.6453C23.173 19.0633 23.941 18.7723 24.913 18.7723C25.885 18.7723 26.644 19.0633 27.19 19.6453C27.73 20.2273 28 21.0223 28 22.0303L28 24.0013L21.763 24.0013L21.763 22.0303Z" fill="black"/>
</svg>
