<svg width="33" height="71" viewBox="0 0 33 71" fill="none" xmlns="http://www.w3.org/2000/svg">
<path d="M32.0607 37.0609C32.6464 36.4751 32.6464 35.5254 32.0607 34.9396L22.5147 25.3936C21.9289 24.8079 20.9792 24.8079 20.3934 25.3936C19.8076 25.9794 19.8076 26.9292 20.3934 27.515L28.8787 36.0002L20.3934 44.4855C19.8076 45.0713 19.8076 46.0211 20.3934 46.6068C20.9792 47.1926 21.9289 47.1926 22.5147 46.6068L32.0607 37.0609ZM30 37.5002L31 37.5002L31 34.5002L30 34.5002L30 37.5002Z" fill="black"/>
<path d="M5.428 59.1639C5.656 59.1639 5.845 59.1009 5.995 58.9749C6.145 58.8489 6.256 58.6869 6.328 58.4889C6.4 58.2909 6.463 58.0719 6.517 57.8319C6.571 57.5859 6.634 57.3429 6.706 57.1029C6.772 56.8569 6.859 56.6349 6.967 56.4369C7.075 56.2389 7.237 56.0769 7.453 55.9509C7.669 55.8249 7.936 55.7619 8.254 55.7619C8.74 55.7619 9.163 55.9479 9.523 56.3199C9.883 56.6919 10.063 57.1959 10.063 57.8319C10.063 58.4619 9.919 58.9749 9.631 59.3709C9.337 59.7669 8.941 59.9649 8.443 59.9649L8.443 59.0919C8.725 59.0679 8.953 58.9569 9.127 58.7589C9.301 58.5549 9.388 58.2549 9.388 57.8589C9.388 57.4629 9.286 57.1479 9.082 56.9139C8.878 56.6799 8.641 56.5629 8.371 56.5629C8.095 56.5629 7.885 56.6259 7.741 56.7519C7.591 56.8779 7.48 57.0399 7.408 57.2379C7.336 57.4359 7.276 57.6579 7.228 57.9039C7.174 58.1439 7.111 58.3869 7.039 58.6329C6.967 58.8729 6.877 59.0919 6.769 59.2899C6.655 59.4879 6.49 59.6499 6.274 59.7759C6.052 59.9019 5.779 59.9649 5.455 59.9649C4.927 59.9649 4.504 59.7789 4.186 59.4069C3.862 59.0289 3.7 58.5399 3.7 57.9399C3.7 57.3339 3.841 56.8539 4.123 56.4999C4.399 56.1399 4.783 55.9329 5.275 55.8789L5.275 56.7879C5.029 56.8119 4.819 56.9289 4.645 57.1389C4.471 57.3429 4.384 57.6219 4.384 57.9759C4.384 58.3239 4.474 58.6089 4.654 58.8309C4.828 59.0529 5.086 59.1639 5.428 59.1639ZM3.763 50.5877L3.763 49.7597L10 49.7597L10 50.5877L7.183 50.5877L7.183 53.7287L10 53.7287L10 54.5477L3.763 54.5477L3.763 53.7287L6.535 53.7287L6.535 50.5877L3.763 50.5877ZM8.659 43.8859C8.209 43.4479 7.615 43.2289 6.877 43.2289C6.139 43.2289 5.548 43.4479 5.104 43.8859C4.654 44.3239 4.429 44.8849 4.429 45.5689C4.429 46.2469 4.654 46.8079 5.104 47.2519C5.548 47.6899 6.139 47.9089 6.877 47.9089C7.615 47.9089 8.209 47.6869 8.659 47.2429C9.109 46.7989 9.334 46.2379 9.334 45.5599C9.334 44.8819 9.109 44.3239 8.659 43.8859ZM10.063 45.5599C10.063 46.4539 9.763 47.2069 9.163 47.8189C8.557 48.4309 7.795 48.7369 6.877 48.7369C5.953 48.7369 5.194 48.4309 4.6 47.8189C4 47.2069 3.7 46.4539 3.7 45.5599C3.7 44.6659 4 43.9159 4.6 43.3099C5.194 42.6979 5.953 42.3919 6.877 42.3919C7.801 42.3919 8.563 42.6979 9.163 43.3099C9.763 43.9159 10.063 44.6659 10.063 45.5599ZM3.763 34.3079L3.763 33.4439L10 35.3339L10 36.2519L4.96 37.6559L10 39.1589L10.009 40.0679L3.763 41.8319L3.763 40.9679L9.064 39.5819L3.763 38.0699L3.763 37.1699L9.046 35.7749L3.763 34.3079ZM4.42 30.1294L3.763 30.1294L3.763 26.0164L4.42 26.0164L4.42 27.6634L10 27.6634L10 28.4824L4.42 28.4824L4.42 30.1294ZM3.763 21.6343L4.411 21.6343L4.411 24.1183L6.535 24.1183L6.535 21.9043L7.174 21.9043L7.174 24.1183L9.352 24.1183L9.352 21.6343L10 21.6343L10 24.9373L3.763 24.9373L3.763 21.6343ZM3.763 15.8484L6.886 17.7744L10 15.8574L10 16.7574L7.543 18.2784L10 19.7094L10 20.6184L6.877 18.6924L3.763 20.6184L3.763 19.7094L6.229 18.1884L3.763 16.7574L3.763 15.8484ZM4.42 15.0122L3.763 15.0122L3.763 10.8992L4.42 10.8992L4.42 12.5462L10 12.5462L10 13.3652L4.42 13.3652L4.42 15.0122Z" fill="black"/>
</svg>
