<svg width="28" height="84" viewBox="0 0 28 84" fill="none" xmlns="http://www.w3.org/2000/svg">
<path d="M1.00001 0.999998L1 83L1.08 83C7.42397 83 13.5081 80.4592 17.994 75.9366C22.4799 71.4139 25 65.2799 25 58.8839L25 25.1161C25 18.7201 22.4799 12.5861 17.994 8.06343C13.5082 3.54079 7.42398 0.999998 1.08 0.999998L1.00001 0.999998Z" fill="#67B281" />
<path d="M15.495 58.495C15.7683 58.2216 15.7683 57.7784 15.495 57.505L11.0402 53.0503C10.7668 52.7769 10.3236 52.7769 10.0503 53.0503C9.77689 53.3236 9.77689 53.7668 10.0503 54.0402L14.0101 58L10.0503 61.9598C9.77689 62.2332 9.77689 62.6764 10.0503 62.9497C10.3236 63.2231 10.7668 63.2231 11.0402 62.9497L15.495 58.495ZM15 57.3L14 57.3L14 58.7L15 58.7L15 57.3Z" fill="black"/>
<path d="M9.94 48.6774L9.05 48.6774L9.05 43.8274L9.94 43.8274L9.94 45.6774L16 45.6774L16 46.8174L9.94 46.8174L9.94 48.6774ZM9.04 38.8329L9.93 38.8329L9.93 41.5329L12.04 41.5329L12.04 39.1329L12.92 39.1329L12.92 41.5329L15.11 41.5329L15.11 38.8329L16 38.8329L16 42.6729L9.04 42.6729L9.04 38.8329ZM9.05 32.0687L12.53 34.2387L16 32.0787L16 33.3587L13.48 34.9287L16 36.3987L16 37.6787L12.53 35.5187L9.05 37.6787L9.05 36.3987L11.58 34.8287L9.05 33.3487L9.05 32.0687ZM9.94 31.1871L9.05 31.1871L9.05 26.3371L9.94 26.3371L9.94 28.1871L16 28.1871L16 29.3271L9.94 29.3271L9.94 31.1871Z" fill="black"/>
</svg>
