<?xml version="1.0" encoding="utf-8"?>
<!-- Generator: Adobe Illustrator 26.1.0, SVG Export Plug-In . SVG Version: 6.00 Build 0)  -->
<svg version="1.1" xmlns="http://www.w3.org/2000/svg" xmlns:xlink="http://www.w3.org/1999/xlink" x="0px" y="0px"
	 viewBox="0 0 25 25" style="enable-background:new 0 0 25 25;" xml:space="preserve">
<style type="text/css">
	.st0{fill:none;stroke:#000000;stroke-miterlimit:10;}
</style>
<g id="Layer_1">
	<g>
		<circle class="st0" cx="12.5" cy="12.5" r="11.6"/>
	</g>
</g>
<g id="Isolation_Mode">
	<g>
		<path d="M18.1,18.1h-2.3v-3.7c0-0.9,0-2-1.2-2c-1.2,0-1.4,0.9-1.4,1.9v3.7h-2.3v-7.5h2.2v1h0c0.5-0.8,1.3-1.2,2.2-1.2
			c2.4,0,2.8,1.6,2.8,3.6L18.1,18.1z"/>
		<path d="M8.2,9.6C8.2,9.6,8.2,9.6,8.2,9.6C7.5,9.6,6.9,9,6.9,8.2c0-0.7,0.6-1.4,1.4-1.4c0.7,0,1.4,0.6,1.4,1.4c0,0,0,0,0,0
			C9.6,9,9,9.6,8.2,9.6"/>
		<rect x="7.1" y="10.6" width="2.3" height="7.5"/>
	</g>
</g>
</svg>
