<?xml version="1.0" encoding="utf-8"?>
<!-- Generator: Adobe Illustrator 26.0.3, SVG Export Plug-In . SVG Version: 6.00 Build 0)  -->
<svg version="1.1" id="Layer_1" xmlns="http://www.w3.org/2000/svg" xmlns:xlink="http://www.w3.org/1999/xlink" x="0px" y="0px"
	 viewBox="0 0 25 25" style="enable-background:new 0 0 25 25;" xml:space="preserve">
<style type="text/css">
	.st0{fill:none;stroke:#000000;stroke-miterlimit:10;}
</style>
<g>
	<circle class="st0" cx="12.5" cy="12.5" r="11.625"/>
</g>
<g>
	<path d="M18.5,8.7875c-0.45,0.1875-0.9,0.3375-1.425,0.375c0.525-0.3,0.9-0.7875,1.0875-1.35c-0.4875,0.3-1.0125,0.4875-1.575,0.6
		C16.1375,7.925,15.5,7.625,14.825,7.625c-1.35,0-2.475,1.0875-2.475,2.475c0,0.1875,0.0375,0.375,0.075,0.5625
		C10.3625,10.55,8.5625,9.575,7.3625,8.075C7.1375,8.45,7.025,8.8625,7.025,9.3125c0,0.8625,0.45,1.6125,1.0875,2.0625
		c-0.4125,0-0.7875-0.1125-1.125-0.3v0.0375c0,1.2,0.8625,2.175,1.9875,2.4c-0.225,0.0375-0.4125,0.075-0.6375,0.075
		c-0.15,0-0.3,0-0.45-0.0375c0.3,0.975,1.2375,1.6875,2.2875,1.725c-0.825,0.675-1.9125,1.05-3.075,1.05
		c-0.1875,0-0.4125,0-0.6-0.0375C7.5875,17,8.9,17.375,10.2875,17.375c4.5375,0,7.0125-3.75,7.0125-7.0125c0-0.1125,0-0.225,0-0.3
		C17.75,9.6875,18.1625,9.275,18.5,8.7875z"/>
</g>
</svg>
